<svg xmlns="http://www.w3.org/2000/svg" xmlns:xlink="http://www.w3.org/1999/xlink" width="300" zoomAndPan="magnify" viewBox="0 0 224.87999 74.999997" height="100" preserveAspectRatio="xMidYMid meet" version="1.0"><defs><g/><clipPath id="id1"><path d="M 174.101562 13.207031 L 217.578125 13.207031 L 217.578125 61.933594 L 174.101562 61.933594 Z M 174.101562 13.207031 " clip-rule="nonzero"/></clipPath><clipPath id="id2"><path d="M 198.691406 16.398438 L 213.90625 25.167969 C 214.214844 24.953125 214.589844 24.832031 214.992188 24.832031 C 215.25 24.832031 215.5 24.882812 215.726562 24.976562 C 215.960938 25.074219 216.171875 25.214844 216.347656 25.390625 C 216.519531 25.566406 216.664062 25.777344 216.761719 26.011719 C 216.855469 26.238281 216.910156 26.484375 216.910156 26.742188 C 216.910156 27 216.855469 27.246094 216.761719 27.472656 C 216.664062 27.707031 216.523438 27.917969 216.347656 28.09375 C 216.21875 28.222656 216.070312 28.332031 215.90625 28.421875 C 215.875 28.4375 215.84375 28.449219 215.816406 28.464844 L 215.816406 46 C 215.917969 46.042969 216.019531 46.09375 216.121094 46.152344 C 216.460938 46.347656 216.746094 46.605469 216.972656 46.898438 C 217.207031 47.203125 217.375 47.546875 217.472656 47.910156 C 217.886719 49.441406 216.96875 51.046875 215.421875 51.460938 C 215.058594 51.558594 214.671875 51.585938 214.289062 51.53125 C 213.972656 51.492188 213.65625 51.394531 213.355469 51.242188 L 213.34375 51.242188 L 213.214844 51.171875 C 213.113281 51.113281 213.019531 51.046875 212.925781 50.980469 L 198.152344 59.496094 C 198.152344 59.539062 198.152344 59.582031 198.152344 59.628906 C 198.152344 59.9375 198.089844 60.234375 197.976562 60.507812 L 197.976562 60.511719 C 197.859375 60.792969 197.6875 61.046875 197.476562 61.257812 C 197.265625 61.46875 197.011719 61.640625 196.726562 61.757812 C 196.453125 61.871094 196.15625 61.933594 195.84375 61.933594 C 195.535156 61.933594 195.238281 61.871094 194.960938 61.757812 C 194.675781 61.640625 194.421875 61.46875 194.214844 61.257812 C 194.003906 61.050781 193.832031 60.792969 193.714844 60.511719 C 193.601562 60.238281 193.539062 59.941406 193.539062 59.628906 C 193.539062 59.59375 193.539062 59.558594 193.542969 59.519531 L 178.765625 51 C 178.667969 51.074219 178.5625 51.144531 178.457031 51.207031 L 178.453125 51.207031 C 178.109375 51.402344 177.746094 51.519531 177.382812 51.570312 C 177 51.617188 176.613281 51.59375 176.253906 51.496094 C 175.886719 51.398438 175.542969 51.230469 175.238281 50.996094 C 174.945312 50.773438 174.6875 50.484375 174.492188 50.144531 L 174.488281 50.136719 L 174.488281 50.140625 C 174.292969 49.800781 174.175781 49.441406 174.128906 49.070312 C 174.078125 48.691406 174.105469 48.308594 174.203125 47.945312 C 174.296875 47.582031 174.46875 47.238281 174.703125 46.933594 C 174.925781 46.640625 175.214844 46.386719 175.554688 46.1875 L 175.683594 46.117188 L 175.691406 46.117188 C 175.738281 46.089844 175.789062 46.066406 175.835938 46.046875 L 175.835938 28.503906 C 175.792969 28.488281 175.753906 28.46875 175.714844 28.449219 C 175.523438 28.355469 175.355469 28.230469 175.21875 28.089844 C 175.042969 27.917969 174.902344 27.707031 174.804688 27.472656 C 174.710938 27.242188 174.65625 26.996094 174.65625 26.742188 C 174.65625 26.484375 174.707031 26.238281 174.804688 26.011719 C 174.902344 25.777344 175.042969 25.566406 175.21875 25.390625 C 175.5625 25.046875 176.042969 24.832031 176.570312 24.832031 C 176.828125 24.832031 177.078125 24.882812 177.300781 24.980469 C 177.445312 25.039062 177.578125 25.113281 177.699219 25.199219 L 192.917969 16.425781 C 192.90625 16.324219 192.898438 16.214844 192.898438 16.109375 C 192.898438 15.722656 192.980469 15.34375 193.121094 15.003906 L 193.121094 15 C 193.378906 14.378906 193.675781 14.121094 194.164062 13.71875 C 194.328125 13.605469 194.507812 13.507812 194.691406 13.433594 C 195.035156 13.289062 195.414062 13.210938 195.804688 13.210938 C 196.191406 13.210938 196.570312 13.289062 196.914062 13.433594 C 197.269531 13.578125 197.589844 13.796875 197.855469 14.0625 C 198.125 14.328125 198.339844 14.644531 198.484375 15.003906 C 198.628906 15.347656 198.707031 15.722656 198.707031 16.109375 C 198.707031 16.207031 198.703125 16.304688 198.691406 16.402344 Z M 175.390625 49.023438 Z M 178.675781 48.796875 C 178.777344 46.855469 175.980469 46.378906 175.429688 48.242188 C 175.394531 48.371094 175.375 48.5 175.371094 48.628906 C 175.363281 48.761719 175.371094 48.894531 175.390625 49.023438 C 175.753906 50.933594 178.582031 50.738281 178.675781 48.796875 Z M 194.183594 16.015625 C 194.179688 16.144531 194.183594 16.277344 194.203125 16.40625 C 194.28125 16.820312 194.507812 17.167969 194.820312 17.410156 C 195.128906 17.648438 195.527344 17.78125 195.945312 17.75 C 196.367188 17.722656 196.742188 17.539062 197.019531 17.261719 C 197.296875 16.980469 197.472656 16.601562 197.492188 16.183594 C 197.515625 15.761719 197.378906 15.367188 197.128906 15.0625 C 196.882812 14.753906 196.527344 14.535156 196.113281 14.464844 C 195.699219 14.394531 195.292969 14.484375 194.957031 14.691406 C 194.625 14.898438 194.363281 15.226562 194.246094 15.628906 C 194.210938 15.753906 194.191406 15.882812 194.1875 16.015625 Z M 213.027344 48.585938 C 213.019531 48.71875 213.027344 48.847656 213.046875 48.980469 C 213.125 49.390625 213.347656 49.742188 213.660156 49.980469 C 213.972656 50.222656 214.371094 50.351562 214.789062 50.324219 C 215.207031 50.296875 215.585938 50.113281 215.859375 49.832031 C 216.136719 49.550781 216.3125 49.171875 216.335938 48.753906 C 216.355469 48.335938 216.21875 47.941406 215.972656 47.632812 C 215.726562 47.328125 215.371094 47.105469 214.957031 47.035156 C 214.542969 46.964844 214.132812 47.054688 213.800781 47.261719 C 213.464844 47.472656 213.207031 47.796875 213.085938 48.199219 C 213.054688 48.324219 213.035156 48.457031 213.027344 48.585938 Z M 178.4375 26.328125 C 178.46875 26.464844 178.484375 26.601562 178.484375 26.742188 C 178.484375 26.996094 178.433594 27.246094 178.335938 27.472656 C 178.238281 27.707031 178.097656 27.914062 177.921875 28.089844 C 177.761719 28.253906 177.570312 28.386719 177.355469 28.480469 C 177.304688 28.503906 177.25 28.527344 177.195312 28.546875 L 177.195312 45.804688 C 177.304688 45.8125 177.410156 45.828125 177.515625 45.84375 L 193.613281 18.011719 C 193.527344 17.917969 193.453125 17.816406 193.386719 17.714844 L 178.4375 26.332031 Z M 193.328125 38.078125 L 193.371094 38.097656 C 193.46875 38.148438 193.558594 38.207031 193.640625 38.269531 L 203.488281 32.59375 C 203.464844 32.480469 203.453125 32.359375 203.453125 32.246094 C 203.453125 31.992188 203.507812 31.742188 203.601562 31.515625 C 203.6875 31.304688 203.8125 31.113281 203.964844 30.949219 L 196.925781 18.78125 C 196.839844 18.820312 196.746094 18.851562 196.65625 18.878906 L 196.652344 18.878906 C 196.449219 18.941406 196.238281 18.984375 196.019531 19 Z M 194.355469 39.417969 C 194.378906 39.539062 194.390625 39.664062 194.390625 39.785156 L 194.390625 39.835938 L 212.265625 47.039062 C 212.386719 46.855469 212.523438 46.695312 212.675781 46.554688 C 212.742188 46.492188 212.8125 46.429688 212.882812 46.375 L 205.792969 34.105469 C 205.65625 34.136719 205.515625 34.152344 205.371094 34.152344 C 205.113281 34.152344 204.867188 34.101562 204.640625 34.007812 C 204.476562 33.9375 204.324219 33.851562 204.191406 33.746094 Z M 193.878906 41.085938 C 193.863281 41.101562 193.84375 41.121094 193.828125 41.136719 C 193.484375 41.480469 193.003906 41.695312 192.476562 41.695312 C 192.21875 41.695312 191.972656 41.644531 191.746094 41.550781 C 191.550781 41.46875 191.371094 41.359375 191.21875 41.226562 L 179.773438 47.824219 C 179.796875 47.898438 179.820312 47.976562 179.835938 48.054688 C 179.851562 48.121094 179.863281 48.183594 179.875 48.246094 L 211.644531 48.246094 Z M 190.582031 40.035156 C 190.570312 39.953125 190.5625 39.867188 190.5625 39.785156 C 190.5625 39.53125 190.613281 39.285156 190.710938 39.058594 L 190.710938 39.054688 C 190.804688 38.824219 190.949219 38.613281 191.125 38.4375 C 191.296875 38.265625 191.5 38.128906 191.730469 38.03125 C 191.808594 37.996094 191.890625 37.96875 191.976562 37.945312 L 194.667969 18.878906 L 178.761719 46.390625 C 178.808594 46.425781 178.851562 46.460938 178.898438 46.5 C 178.960938 46.554688 179.019531 46.609375 179.078125 46.671875 L 190.582031 40.039062 Z M 205.367188 30.335938 C 205.625 30.335938 205.871094 30.386719 206.097656 30.480469 C 206.335938 30.578125 206.542969 30.71875 206.71875 30.894531 C 206.894531 31.070312 207.035156 31.28125 207.132812 31.515625 C 207.226562 31.742188 207.28125 31.992188 207.28125 32.246094 C 207.28125 32.503906 207.230469 32.75 207.132812 32.976562 C 207.078125 33.117188 207.003906 33.246094 206.917969 33.363281 L 214.117188 45.816406 C 214.230469 45.792969 214.34375 45.777344 214.457031 45.769531 L 214.457031 28.574219 C 214.390625 28.554688 214.324219 28.53125 214.261719 28.503906 C 214.023438 28.40625 213.8125 28.265625 213.640625 28.089844 C 213.464844 27.917969 213.324219 27.707031 213.226562 27.472656 C 213.132812 27.242188 213.078125 26.996094 213.078125 26.742188 C 213.078125 26.585938 213.097656 26.433594 213.136719 26.285156 L 198.234375 17.691406 L 198.027344 17.984375 L 205.171875 30.34375 C 205.238281 30.339844 205.300781 30.335938 205.367188 30.335938 Z M 179.765625 49.601562 C 179.726562 49.714844 179.679688 49.828125 179.628906 49.9375 L 193.996094 58.21875 L 194.21875 57.996094 C 194.636719 57.582031 195.210938 57.324219 195.851562 57.324219 C 196.160156 57.324219 196.457031 57.386719 196.730469 57.5 L 196.734375 57.5 C 197.015625 57.617188 197.269531 57.785156 197.480469 57.996094 C 197.546875 58.0625 197.613281 58.136719 197.671875 58.210938 L 212.054688 49.917969 C 212.007812 49.816406 211.960938 49.707031 211.925781 49.601562 Z M 179.765625 49.601562 " clip-rule="nonzero"/></clipPath><linearGradient x1="15.763057" gradientTransform="matrix(0.161413, 0, 0, 0.161178, 174.104777, 13.208335)" y1="314.843152" x2="267.209169" gradientUnits="userSpaceOnUse" y2="-1.661232" id="id3"><stop stop-opacity="1" stop-color="rgb(74.026489%, 1.512146%, 80.296326%)" offset="0"/><stop stop-opacity="1" stop-color="rgb(73.556519%, 1.937866%, 80.380249%)" offset="0.00390625"/><stop stop-opacity="1" stop-color="rgb(73.086548%, 2.363586%, 80.464172%)" offset="0.0078125"/><stop stop-opacity="1" stop-color="rgb(72.615051%, 2.787781%, 80.54657%)" offset="0.0117188"/><stop stop-opacity="1" stop-color="rgb(72.145081%, 3.213501%, 80.630493%)" offset="0.015625"/><stop stop-opacity="1" stop-color="rgb(71.67511%, 3.639221%, 80.714417%)" offset="0.0195313"/><stop stop-opacity="1" stop-color="rgb(71.205139%, 4.064941%, 80.79834%)" offset="0.0234375"/><stop stop-opacity="1" stop-color="rgb(70.733643%, 4.490662%, 80.880737%)" offset="0.0273437"/><stop stop-opacity="1" stop-color="rgb(70.263672%, 4.916382%, 80.964661%)" offset="0.03125"/><stop stop-opacity="1" stop-color="rgb(69.793701%, 5.340576%, 81.048584%)" offset="0.0351562"/><stop stop-opacity="1" stop-color="rgb(69.32373%, 5.766296%, 81.132507%)" offset="0.0390625"/><stop stop-opacity="1" stop-color="rgb(68.852234%, 6.192017%, 81.214905%)" offset="0.0429688"/><stop stop-opacity="1" stop-color="rgb(68.382263%, 6.617737%, 81.298828%)" offset="0.046875"/><stop stop-opacity="1" stop-color="rgb(67.912292%, 7.041931%, 81.382751%)" offset="0.0507812"/><stop stop-opacity="1" stop-color="rgb(67.442322%, 7.467651%, 81.466675%)" offset="0.0546875"/><stop stop-opacity="1" stop-color="rgb(66.970825%, 7.893372%, 81.550598%)" offset="0.0585937"/><stop stop-opacity="1" stop-color="rgb(66.500854%, 8.319092%, 81.634521%)" offset="0.0625"/><stop stop-opacity="1" stop-color="rgb(66.030884%, 8.744812%, 81.716919%)" offset="0.0664063"/><stop stop-opacity="1" stop-color="rgb(65.560913%, 9.170532%, 81.800842%)" offset="0.0703125"/><stop stop-opacity="1" stop-color="rgb(65.089417%, 9.594727%, 81.884766%)" offset="0.0742188"/><stop stop-opacity="1" stop-color="rgb(64.619446%, 10.020447%, 81.968689%)" offset="0.078125"/><stop stop-opacity="1" stop-color="rgb(64.149475%, 10.446167%, 82.051086%)" offset="0.0820312"/><stop stop-opacity="1" stop-color="rgb(63.679504%, 10.871887%, 82.13501%)" offset="0.0859375"/><stop stop-opacity="1" stop-color="rgb(63.208008%, 11.296082%, 82.218933%)" offset="0.0898438"/><stop stop-opacity="1" stop-color="rgb(62.738037%, 11.721802%, 82.302856%)" offset="0.09375"/><stop stop-opacity="1" stop-color="rgb(62.268066%, 12.147522%, 82.385254%)" offset="0.0976562"/><stop stop-opacity="1" stop-color="rgb(61.798096%, 12.573242%, 82.469177%)" offset="0.101562"/><stop stop-opacity="1" stop-color="rgb(61.326599%, 12.998962%, 82.553101%)" offset="0.105469"/><stop stop-opacity="1" stop-color="rgb(60.856628%, 13.424683%, 82.637024%)" offset="0.109375"/><stop stop-opacity="1" stop-color="rgb(60.386658%, 13.848877%, 82.720947%)" offset="0.113281"/><stop stop-opacity="1" stop-color="rgb(59.916687%, 14.274597%, 82.804871%)" offset="0.117187"/><stop stop-opacity="1" stop-color="rgb(59.44519%, 14.700317%, 82.887268%)" offset="0.121094"/><stop stop-opacity="1" stop-color="rgb(58.97522%, 15.126038%, 82.971191%)" offset="0.125"/><stop stop-opacity="1" stop-color="rgb(58.505249%, 15.551758%, 83.055115%)" offset="0.128906"/><stop stop-opacity="1" stop-color="rgb(58.035278%, 15.977478%, 83.139038%)" offset="0.132813"/><stop stop-opacity="1" stop-color="rgb(57.563782%, 16.401672%, 83.221436%)" offset="0.136719"/><stop stop-opacity="1" stop-color="rgb(57.093811%, 16.827393%, 83.305359%)" offset="0.140625"/><stop stop-opacity="1" stop-color="rgb(56.62384%, 17.253113%, 83.389282%)" offset="0.144531"/><stop stop-opacity="1" stop-color="rgb(56.15387%, 17.678833%, 83.473206%)" offset="0.148438"/><stop stop-opacity="1" stop-color="rgb(55.682373%, 18.103027%, 83.555603%)" offset="0.152344"/><stop stop-opacity="1" stop-color="rgb(55.212402%, 18.528748%, 83.639526%)" offset="0.15625"/><stop stop-opacity="1" stop-color="rgb(54.742432%, 18.954468%, 83.72345%)" offset="0.160156"/><stop stop-opacity="1" stop-color="rgb(54.272461%, 19.380188%, 83.807373%)" offset="0.164062"/><stop stop-opacity="1" stop-color="rgb(53.800964%, 19.805908%, 83.889771%)" offset="0.167969"/><stop stop-opacity="1" stop-color="rgb(53.330994%, 20.231628%, 83.973694%)" offset="0.171875"/><stop stop-opacity="1" stop-color="rgb(52.861023%, 20.655823%, 84.057617%)" offset="0.175781"/><stop stop-opacity="1" stop-color="rgb(52.391052%, 21.081543%, 84.141541%)" offset="0.179688"/><stop stop-opacity="1" stop-color="rgb(51.919556%, 21.507263%, 84.225464%)" offset="0.183594"/><stop stop-opacity="1" stop-color="rgb(51.449585%, 21.932983%, 84.309387%)" offset="0.1875"/><stop stop-opacity="1" stop-color="rgb(50.979614%, 22.358704%, 84.391785%)" offset="0.191406"/><stop stop-opacity="1" stop-color="rgb(50.509644%, 22.784424%, 84.475708%)" offset="0.195312"/><stop stop-opacity="1" stop-color="rgb(50.038147%, 23.208618%, 84.559631%)" offset="0.199219"/><stop stop-opacity="1" stop-color="rgb(49.568176%, 23.634338%, 84.643555%)" offset="0.203125"/><stop stop-opacity="1" stop-color="rgb(49.098206%, 24.060059%, 84.725952%)" offset="0.207031"/><stop stop-opacity="1" stop-color="rgb(48.628235%, 24.485779%, 84.809875%)" offset="0.210938"/><stop stop-opacity="1" stop-color="rgb(48.156738%, 24.909973%, 84.893799%)" offset="0.214844"/><stop stop-opacity="1" stop-color="rgb(47.686768%, 25.335693%, 84.977722%)" offset="0.21875"/><stop stop-opacity="1" stop-color="rgb(47.216797%, 25.761414%, 85.06012%)" offset="0.222656"/><stop stop-opacity="1" stop-color="rgb(46.746826%, 26.187134%, 85.144043%)" offset="0.226562"/><stop stop-opacity="1" stop-color="rgb(46.27533%, 26.612854%, 85.227966%)" offset="0.230469"/><stop stop-opacity="1" stop-color="rgb(45.805359%, 27.038574%, 85.31189%)" offset="0.234375"/><stop stop-opacity="1" stop-color="rgb(45.335388%, 27.462769%, 85.395813%)" offset="0.238281"/><stop stop-opacity="1" stop-color="rgb(44.865417%, 27.888489%, 85.479736%)" offset="0.242187"/><stop stop-opacity="1" stop-color="rgb(44.393921%, 28.314209%, 85.562134%)" offset="0.246094"/><stop stop-opacity="1" stop-color="rgb(43.92395%, 28.739929%, 85.646057%)" offset="0.25"/><stop stop-opacity="1" stop-color="rgb(43.453979%, 29.164124%, 85.72998%)" offset="0.253906"/><stop stop-opacity="1" stop-color="rgb(42.984009%, 29.589844%, 85.813904%)" offset="0.257812"/><stop stop-opacity="1" stop-color="rgb(42.512512%, 30.015564%, 85.896301%)" offset="0.261719"/><stop stop-opacity="1" stop-color="rgb(42.042542%, 30.441284%, 85.980225%)" offset="0.265625"/><stop stop-opacity="1" stop-color="rgb(41.572571%, 30.867004%, 86.064148%)" offset="0.269531"/><stop stop-opacity="1" stop-color="rgb(41.1026%, 31.292725%, 86.148071%)" offset="0.273438"/><stop stop-opacity="1" stop-color="rgb(40.631104%, 31.716919%, 86.230469%)" offset="0.277344"/><stop stop-opacity="1" stop-color="rgb(40.161133%, 32.142639%, 86.314392%)" offset="0.28125"/><stop stop-opacity="1" stop-color="rgb(39.691162%, 32.568359%, 86.398315%)" offset="0.285156"/><stop stop-opacity="1" stop-color="rgb(39.221191%, 32.99408%, 86.482239%)" offset="0.289063"/><stop stop-opacity="1" stop-color="rgb(38.749695%, 33.4198%, 86.564636%)" offset="0.292969"/><stop stop-opacity="1" stop-color="rgb(38.279724%, 33.84552%, 86.64856%)" offset="0.296875"/><stop stop-opacity="1" stop-color="rgb(37.858582%, 34.22699%, 86.724854%)" offset="0.300781"/><stop stop-opacity="1" stop-color="rgb(37.437439%, 34.609985%, 86.802673%)" offset="0.304688"/><stop stop-opacity="1" stop-color="rgb(37.036133%, 34.973145%, 86.875916%)" offset="0.308594"/><stop stop-opacity="1" stop-color="rgb(36.634827%, 35.33783%, 86.950684%)" offset="0.3125"/><stop stop-opacity="1" stop-color="rgb(36.233521%, 35.700989%, 87.023926%)" offset="0.316406"/><stop stop-opacity="1" stop-color="rgb(35.832214%, 36.065674%, 87.098694%)" offset="0.320312"/><stop stop-opacity="1" stop-color="rgb(35.430908%, 36.430359%, 87.171936%)" offset="0.324219"/><stop stop-opacity="1" stop-color="rgb(35.031128%, 36.795044%, 87.246704%)" offset="0.328125"/><stop stop-opacity="1" stop-color="rgb(34.629822%, 37.158203%, 87.319946%)" offset="0.332031"/><stop stop-opacity="1" stop-color="rgb(34.228516%, 37.522888%, 87.393188%)" offset="0.335938"/><stop stop-opacity="1" stop-color="rgb(33.827209%, 37.886047%, 87.466431%)" offset="0.339844"/><stop stop-opacity="1" stop-color="rgb(33.425903%, 38.250732%, 87.541199%)" offset="0.34375"/><stop stop-opacity="1" stop-color="rgb(33.024597%, 38.613892%, 87.614441%)" offset="0.347656"/><stop stop-opacity="1" stop-color="rgb(32.624817%, 38.978577%, 87.689209%)" offset="0.351562"/><stop stop-opacity="1" stop-color="rgb(32.223511%, 39.343262%, 87.762451%)" offset="0.355469"/><stop stop-opacity="1" stop-color="rgb(31.822205%, 39.707947%, 87.837219%)" offset="0.359375"/><stop stop-opacity="1" stop-color="rgb(31.420898%, 40.071106%, 87.910461%)" offset="0.363281"/><stop stop-opacity="1" stop-color="rgb(31.019592%, 40.435791%, 87.985229%)" offset="0.367188"/><stop stop-opacity="1" stop-color="rgb(30.618286%, 40.79895%, 88.058472%)" offset="0.371094"/><stop stop-opacity="1" stop-color="rgb(30.218506%, 41.163635%, 88.13324%)" offset="0.375"/><stop stop-opacity="1" stop-color="rgb(29.8172%, 41.526794%, 88.206482%)" offset="0.378906"/><stop stop-opacity="1" stop-color="rgb(29.415894%, 41.891479%, 88.279724%)" offset="0.382812"/><stop stop-opacity="1" stop-color="rgb(29.014587%, 42.256165%, 88.352966%)" offset="0.386719"/><stop stop-opacity="1" stop-color="rgb(28.613281%, 42.62085%, 88.427734%)" offset="0.390625"/><stop stop-opacity="1" stop-color="rgb(28.211975%, 42.984009%, 88.500977%)" offset="0.394531"/><stop stop-opacity="1" stop-color="rgb(27.812195%, 43.348694%, 88.575745%)" offset="0.398438"/><stop stop-opacity="1" stop-color="rgb(27.410889%, 43.711853%, 88.648987%)" offset="0.402344"/><stop stop-opacity="1" stop-color="rgb(27.009583%, 44.076538%, 88.723755%)" offset="0.40625"/><stop stop-opacity="1" stop-color="rgb(26.608276%, 44.439697%, 88.796997%)" offset="0.410156"/><stop stop-opacity="1" stop-color="rgb(26.20697%, 44.804382%, 88.871765%)" offset="0.414062"/><stop stop-opacity="1" stop-color="rgb(25.805664%, 45.169067%, 88.945007%)" offset="0.417969"/><stop stop-opacity="1" stop-color="rgb(25.405884%, 45.533752%, 89.019775%)" offset="0.421875"/><stop stop-opacity="1" stop-color="rgb(25.004578%, 45.896912%, 89.093018%)" offset="0.425781"/><stop stop-opacity="1" stop-color="rgb(24.603271%, 46.261597%, 89.16626%)" offset="0.429688"/><stop stop-opacity="1" stop-color="rgb(24.201965%, 46.624756%, 89.239502%)" offset="0.433594"/><stop stop-opacity="1" stop-color="rgb(23.800659%, 46.989441%, 89.31427%)" offset="0.4375"/><stop stop-opacity="1" stop-color="rgb(23.399353%, 47.3526%, 89.387512%)" offset="0.441406"/><stop stop-opacity="1" stop-color="rgb(22.999573%, 47.717285%, 89.46228%)" offset="0.445312"/><stop stop-opacity="1" stop-color="rgb(22.598267%, 48.08197%, 89.535522%)" offset="0.449219"/><stop stop-opacity="1" stop-color="rgb(22.19696%, 48.446655%, 89.610291%)" offset="0.453125"/><stop stop-opacity="1" stop-color="rgb(21.795654%, 48.809814%, 89.683533%)" offset="0.457031"/><stop stop-opacity="1" stop-color="rgb(21.394348%, 49.1745%, 89.758301%)" offset="0.460937"/><stop stop-opacity="1" stop-color="rgb(20.993042%, 49.537659%, 89.831543%)" offset="0.464844"/><stop stop-opacity="1" stop-color="rgb(20.593262%, 49.902344%, 89.906311%)" offset="0.46875"/><stop stop-opacity="1" stop-color="rgb(20.191956%, 50.265503%, 89.979553%)" offset="0.472656"/><stop stop-opacity="1" stop-color="rgb(19.790649%, 50.630188%, 90.052795%)" offset="0.476562"/><stop stop-opacity="1" stop-color="rgb(19.389343%, 50.993347%, 90.126038%)" offset="0.480469"/><stop stop-opacity="1" stop-color="rgb(18.988037%, 51.358032%, 90.200806%)" offset="0.484375"/><stop stop-opacity="1" stop-color="rgb(18.586731%, 51.722717%, 90.274048%)" offset="0.488281"/><stop stop-opacity="1" stop-color="rgb(18.186951%, 52.087402%, 90.348816%)" offset="0.492188"/><stop stop-opacity="1" stop-color="rgb(17.785645%, 52.450562%, 90.422058%)" offset="0.496094"/><stop stop-opacity="1" stop-color="rgb(17.384338%, 52.815247%, 90.496826%)" offset="0.5"/><stop stop-opacity="1" stop-color="rgb(16.983032%, 53.178406%, 90.570068%)" offset="0.503906"/><stop stop-opacity="1" stop-color="rgb(16.581726%, 53.543091%, 90.644836%)" offset="0.507813"/><stop stop-opacity="1" stop-color="rgb(16.18042%, 53.90625%, 90.718079%)" offset="0.511719"/><stop stop-opacity="1" stop-color="rgb(15.78064%, 54.270935%, 90.792847%)" offset="0.515625"/><stop stop-opacity="1" stop-color="rgb(15.379333%, 54.63562%, 90.866089%)" offset="0.519531"/><stop stop-opacity="1" stop-color="rgb(14.978027%, 55.000305%, 90.939331%)" offset="0.523438"/><stop stop-opacity="1" stop-color="rgb(14.576721%, 55.363464%, 91.012573%)" offset="0.527344"/><stop stop-opacity="1" stop-color="rgb(14.175415%, 55.728149%, 91.087341%)" offset="0.53125"/><stop stop-opacity="1" stop-color="rgb(13.774109%, 56.091309%, 91.160583%)" offset="0.535156"/><stop stop-opacity="1" stop-color="rgb(13.374329%, 56.455994%, 91.235352%)" offset="0.539062"/><stop stop-opacity="1" stop-color="rgb(12.973022%, 56.819153%, 91.308594%)" offset="0.542969"/><stop stop-opacity="1" stop-color="rgb(12.571716%, 57.183838%, 91.383362%)" offset="0.546875"/><stop stop-opacity="1" stop-color="rgb(12.17041%, 57.548523%, 91.456604%)" offset="0.550781"/><stop stop-opacity="1" stop-color="rgb(11.77063%, 57.913208%, 91.531372%)" offset="0.554688"/><stop stop-opacity="1" stop-color="rgb(11.369324%, 58.276367%, 91.604614%)" offset="0.558594"/><stop stop-opacity="1" stop-color="rgb(10.968018%, 58.641052%, 91.679382%)" offset="0.5625"/><stop stop-opacity="1" stop-color="rgb(10.566711%, 59.004211%, 91.752625%)" offset="0.566406"/><stop stop-opacity="1" stop-color="rgb(10.165405%, 59.368896%, 91.825867%)" offset="0.570312"/><stop stop-opacity="1" stop-color="rgb(9.764099%, 59.732056%, 91.899109%)" offset="0.574219"/><stop stop-opacity="1" stop-color="rgb(9.364319%, 60.096741%, 91.973877%)" offset="0.578125"/><stop stop-opacity="1" stop-color="rgb(8.963013%, 60.461426%, 92.047119%)" offset="0.582031"/><stop stop-opacity="1" stop-color="rgb(8.561707%, 60.826111%, 92.121887%)" offset="0.585938"/><stop stop-opacity="1" stop-color="rgb(8.1604%, 61.18927%, 92.195129%)" offset="0.589844"/><stop stop-opacity="1" stop-color="rgb(7.759094%, 61.553955%, 92.269897%)" offset="0.59375"/><stop stop-opacity="1" stop-color="rgb(7.357788%, 61.917114%, 92.34314%)" offset="0.597656"/><stop stop-opacity="1" stop-color="rgb(6.958008%, 62.281799%, 92.417908%)" offset="0.601563"/><stop stop-opacity="1" stop-color="rgb(6.556702%, 62.644958%, 92.49115%)" offset="0.605469"/><stop stop-opacity="1" stop-color="rgb(6.155396%, 63.009644%, 92.565918%)" offset="0.609375"/><stop stop-opacity="1" stop-color="rgb(5.754089%, 63.374329%, 92.63916%)" offset="0.613281"/><stop stop-opacity="1" stop-color="rgb(5.352783%, 63.739014%, 92.712402%)" offset="0.617188"/><stop stop-opacity="1" stop-color="rgb(4.951477%, 64.102173%, 92.785645%)" offset="0.621094"/><stop stop-opacity="1" stop-color="rgb(4.551697%, 64.466858%, 92.860413%)" offset="0.625"/><stop stop-opacity="1" stop-color="rgb(4.150391%, 64.830017%, 92.933655%)" offset="0.628906"/><stop stop-opacity="1" stop-color="rgb(3.749084%, 65.194702%, 93.008423%)" offset="0.632812"/><stop stop-opacity="1" stop-color="rgb(3.347778%, 65.557861%, 93.081665%)" offset="0.636719"/><stop stop-opacity="1" stop-color="rgb(2.946472%, 65.922546%, 93.156433%)" offset="0.640625"/><stop stop-opacity="1" stop-color="rgb(2.545166%, 66.287231%, 93.229675%)" offset="0.644531"/><stop stop-opacity="1" stop-color="rgb(2.145386%, 66.651917%, 93.304443%)" offset="0.648438"/><stop stop-opacity="1" stop-color="rgb(1.74408%, 67.015076%, 93.377686%)" offset="0.652344"/><stop stop-opacity="1" stop-color="rgb(1.342773%, 67.379761%, 93.452454%)" offset="0.65625"/><stop stop-opacity="1" stop-color="rgb(0.941467%, 67.74292%, 93.525696%)" offset="0.660156"/><stop stop-opacity="1" stop-color="rgb(0.540161%, 68.107605%, 93.598938%)" offset="0.664062"/><stop stop-opacity="1" stop-color="rgb(0.270081%, 68.466187%, 93.670654%)" offset="0.667969"/><stop stop-opacity="1" stop-color="rgb(0%, 68.824768%, 93.743896%)" offset="0.671875"/><stop stop-opacity="1" stop-color="rgb(0%, 69.171143%, 93.814087%)" offset="0.675781"/><stop stop-opacity="1" stop-color="rgb(0%, 69.519043%, 93.884277%)" offset="0.679688"/><stop stop-opacity="1" stop-color="rgb(0%, 69.865417%, 93.952942%)" offset="0.683594"/><stop stop-opacity="1" stop-color="rgb(0%, 70.213318%, 94.023132%)" offset="0.6875"/><stop stop-opacity="1" stop-color="rgb(0%, 70.559692%, 94.091797%)" offset="0.691406"/><stop stop-opacity="1" stop-color="rgb(0%, 70.906067%, 94.161987%)" offset="0.695312"/><stop stop-opacity="1" stop-color="rgb(0%, 71.252441%, 94.230652%)" offset="0.699219"/><stop stop-opacity="1" stop-color="rgb(0%, 71.600342%, 94.300842%)" offset="0.703125"/><stop stop-opacity="1" stop-color="rgb(0%, 71.946716%, 94.371033%)" offset="0.707031"/><stop stop-opacity="1" stop-color="rgb(0%, 72.294617%, 94.441223%)" offset="0.710938"/><stop stop-opacity="1" stop-color="rgb(0%, 72.640991%, 94.509888%)" offset="0.714844"/><stop stop-opacity="1" stop-color="rgb(0%, 72.988892%, 94.580078%)" offset="0.71875"/><stop stop-opacity="1" stop-color="rgb(0%, 73.335266%, 94.648743%)" offset="0.722656"/><stop stop-opacity="1" stop-color="rgb(0%, 73.681641%, 94.718933%)" offset="0.726562"/><stop stop-opacity="1" stop-color="rgb(0%, 74.028015%, 94.787598%)" offset="0.730469"/><stop stop-opacity="1" stop-color="rgb(0%, 74.375916%, 94.857788%)" offset="0.734375"/><stop stop-opacity="1" stop-color="rgb(0%, 74.72229%, 94.927979%)" offset="0.738281"/><stop stop-opacity="1" stop-color="rgb(0%, 75.07019%, 94.998169%)" offset="0.742188"/><stop stop-opacity="1" stop-color="rgb(0%, 75.416565%, 95.066833%)" offset="0.746094"/><stop stop-opacity="1" stop-color="rgb(0%, 75.762939%, 95.137024%)" offset="0.75"/><stop stop-opacity="1" stop-color="rgb(0%, 76.109314%, 95.205688%)" offset="0.753906"/><stop stop-opacity="1" stop-color="rgb(0%, 76.457214%, 95.275879%)" offset="0.757812"/><stop stop-opacity="1" stop-color="rgb(0%, 76.803589%, 95.344543%)" offset="0.761719"/><stop stop-opacity="1" stop-color="rgb(0%, 77.151489%, 95.414734%)" offset="0.765625"/><stop stop-opacity="1" stop-color="rgb(0%, 77.497864%, 95.483398%)" offset="0.769531"/><stop stop-opacity="1" stop-color="rgb(0%, 77.845764%, 95.553589%)" offset="0.773438"/><stop stop-opacity="1" stop-color="rgb(0%, 78.192139%, 95.623779%)" offset="0.777344"/><stop stop-opacity="1" stop-color="rgb(0%, 78.538513%, 95.69397%)" offset="0.78125"/><stop stop-opacity="1" stop-color="rgb(0%, 78.884888%, 95.762634%)" offset="0.785156"/><stop stop-opacity="1" stop-color="rgb(0%, 79.232788%, 95.832825%)" offset="0.789062"/><stop stop-opacity="1" stop-color="rgb(0%, 79.579163%, 95.901489%)" offset="0.792969"/><stop stop-opacity="1" stop-color="rgb(0%, 79.927063%, 95.97168%)" offset="0.796875"/><stop stop-opacity="1" stop-color="rgb(0%, 80.273438%, 96.040344%)" offset="0.800781"/><stop stop-opacity="1" stop-color="rgb(0%, 80.621338%, 96.110535%)" offset="0.804688"/><stop stop-opacity="1" stop-color="rgb(0%, 80.967712%, 96.180725%)" offset="0.808594"/><stop stop-opacity="1" stop-color="rgb(0%, 81.314087%, 96.250916%)" offset="0.8125"/><stop stop-opacity="1" stop-color="rgb(0%, 81.660461%, 96.31958%)" offset="0.816406"/><stop stop-opacity="1" stop-color="rgb(0%, 82.008362%, 96.389771%)" offset="0.820312"/><stop stop-opacity="1" stop-color="rgb(0%, 82.354736%, 96.458435%)" offset="0.824219"/><stop stop-opacity="1" stop-color="rgb(0%, 82.702637%, 96.528625%)" offset="0.828125"/><stop stop-opacity="1" stop-color="rgb(0%, 83.049011%, 96.59729%)" offset="0.832031"/><stop stop-opacity="1" stop-color="rgb(0%, 83.396912%, 96.66748%)" offset="0.835938"/><stop stop-opacity="1" stop-color="rgb(0%, 83.743286%, 96.737671%)" offset="0.839844"/><stop stop-opacity="1" stop-color="rgb(0%, 84.089661%, 96.807861%)" offset="0.84375"/><stop stop-opacity="1" stop-color="rgb(0%, 84.436035%, 96.876526%)" offset="0.847656"/><stop stop-opacity="1" stop-color="rgb(0%, 84.783936%, 96.946716%)" offset="0.851562"/><stop stop-opacity="1" stop-color="rgb(0%, 85.13031%, 97.015381%)" offset="0.855469"/><stop stop-opacity="1" stop-color="rgb(0%, 85.47821%, 97.085571%)" offset="0.859375"/><stop stop-opacity="1" stop-color="rgb(0%, 85.824585%, 97.154236%)" offset="0.863281"/><stop stop-opacity="1" stop-color="rgb(0%, 86.172485%, 97.224426%)" offset="0.867188"/><stop stop-opacity="1" stop-color="rgb(0%, 86.51886%, 97.294617%)" offset="0.871094"/><stop stop-opacity="1" stop-color="rgb(0%, 86.865234%, 97.364807%)" offset="0.875"/><stop stop-opacity="1" stop-color="rgb(0%, 87.211609%, 97.433472%)" offset="0.878906"/><stop stop-opacity="1" stop-color="rgb(0%, 87.559509%, 97.503662%)" offset="0.882812"/><stop stop-opacity="1" stop-color="rgb(0%, 87.905884%, 97.572327%)" offset="0.886719"/><stop stop-opacity="1" stop-color="rgb(0%, 88.253784%, 97.642517%)" offset="0.890625"/><stop stop-opacity="1" stop-color="rgb(0%, 88.600159%, 97.711182%)" offset="0.894531"/><stop stop-opacity="1" stop-color="rgb(0%, 88.948059%, 97.781372%)" offset="0.898437"/><stop stop-opacity="1" stop-color="rgb(0%, 89.294434%, 97.851562%)" offset="0.902344"/><stop stop-opacity="1" stop-color="rgb(0%, 89.640808%, 97.921753%)" offset="0.90625"/><stop stop-opacity="1" stop-color="rgb(0%, 89.987183%, 97.990417%)" offset="0.910156"/><stop stop-opacity="1" stop-color="rgb(0%, 90.335083%, 98.060608%)" offset="0.914062"/><stop stop-opacity="1" stop-color="rgb(0%, 90.681458%, 98.129272%)" offset="0.917969"/><stop stop-opacity="1" stop-color="rgb(0%, 91.029358%, 98.199463%)" offset="0.921875"/><stop stop-opacity="1" stop-color="rgb(0%, 91.375732%, 98.268127%)" offset="0.925781"/><stop stop-opacity="1" stop-color="rgb(0%, 91.723633%, 98.338318%)" offset="0.929688"/><stop stop-opacity="1" stop-color="rgb(0%, 92.070007%, 98.406982%)" offset="0.933594"/><stop stop-opacity="1" stop-color="rgb(0%, 92.416382%, 98.477173%)" offset="0.9375"/><stop stop-opacity="1" stop-color="rgb(0%, 92.762756%, 98.547363%)" offset="0.941406"/><stop stop-opacity="1" stop-color="rgb(0%, 93.110657%, 98.617554%)" offset="0.945312"/><stop stop-opacity="1" stop-color="rgb(0%, 93.457031%, 98.686218%)" offset="0.949219"/><stop stop-opacity="1" stop-color="rgb(0%, 93.804932%, 98.756409%)" offset="0.953125"/><stop stop-opacity="1" stop-color="rgb(0%, 94.151306%, 98.825073%)" offset="0.957031"/><stop stop-opacity="1" stop-color="rgb(0%, 94.499207%, 98.895264%)" offset="0.960938"/><stop stop-opacity="1" stop-color="rgb(0%, 94.845581%, 98.963928%)" offset="0.964844"/><stop stop-opacity="1" stop-color="rgb(0%, 95.191956%, 99.034119%)" offset="0.96875"/><stop stop-opacity="1" stop-color="rgb(0%, 95.53833%, 99.104309%)" offset="0.972656"/><stop stop-opacity="1" stop-color="rgb(0%, 95.88623%, 99.1745%)" offset="0.976562"/><stop stop-opacity="1" stop-color="rgb(0%, 96.232605%, 99.243164%)" offset="0.980469"/><stop stop-opacity="1" stop-color="rgb(0%, 96.580505%, 99.313354%)" offset="0.984375"/><stop stop-opacity="1" stop-color="rgb(0%, 96.92688%, 99.382019%)" offset="0.988281"/><stop stop-opacity="1" stop-color="rgb(0%, 97.27478%, 99.452209%)" offset="0.992187"/><stop stop-opacity="1" stop-color="rgb(0%, 97.621155%, 99.520874%)" offset="0.996094"/><stop stop-opacity="1" stop-color="rgb(0%, 97.967529%, 99.591064%)" offset="1"/></linearGradient></defs><g clip-path="url(#id1)"><g clip-path="url(#id2)"><path fill="url(#id3)" d="M 174.101562 13.210938 L 174.101562 61.933594 L 217.578125 61.933594 L 217.578125 13.210938 Z M 174.101562 13.210938 " fill-rule="nonzero"/></g></g><g fill="#545454" fill-opacity="1"><g transform="translate(0.975168, 46.495195)"><g><path d="M 15.5 -9.453125 C 16.539062 -9.117188 17.351562 -8.566406 17.9375 -7.796875 C 18.53125 -7.023438 18.828125 -6.078125 18.828125 -4.953125 C 18.828125 -3.367188 18.207031 -2.144531 16.96875 -1.28125 C 15.726562 -0.425781 13.925781 0 11.5625 0 L 2.15625 0 L 2.15625 -18.171875 L 11.03125 -18.171875 C 13.25 -18.171875 14.953125 -17.75 16.140625 -16.90625 C 17.328125 -16.0625 17.921875 -14.910156 17.921875 -13.453125 C 17.921875 -12.566406 17.707031 -11.773438 17.28125 -11.078125 C 16.851562 -10.390625 16.257812 -9.847656 15.5 -9.453125 Z M 6.34375 -15.015625 L 6.34375 -10.71875 L 10.515625 -10.71875 C 11.554688 -10.71875 12.34375 -10.898438 12.875 -11.265625 C 13.414062 -11.628906 13.6875 -12.164062 13.6875 -12.875 C 13.6875 -13.582031 13.414062 -14.113281 12.875 -14.46875 C 12.34375 -14.832031 11.554688 -15.015625 10.515625 -15.015625 Z M 11.25 -3.171875 C 12.351562 -3.171875 13.1875 -3.351562 13.75 -3.71875 C 14.3125 -4.082031 14.59375 -4.644531 14.59375 -5.40625 C 14.59375 -6.90625 13.476562 -7.65625 11.25 -7.65625 L 6.34375 -7.65625 L 6.34375 -3.171875 Z M 11.25 -3.171875 "/></g></g></g><g fill="#545454" fill-opacity="1"><g transform="translate(24.051236, 46.495195)"><g><path d="M 2.15625 -18.171875 L 6.359375 -18.171875 L 6.359375 -3.421875 L 15.484375 -3.421875 L 15.484375 0 L 2.15625 0 Z M 2.15625 -18.171875 "/></g></g></g><g fill="#545454" fill-opacity="1"><g transform="translate(42.948562, 46.495195)"><g><path d="M 10.953125 0.3125 C 9.066406 0.3125 7.363281 -0.09375 5.84375 -0.90625 C 4.332031 -1.71875 3.148438 -2.835938 2.296875 -4.265625 C 1.441406 -5.703125 1.015625 -7.3125 1.015625 -9.09375 C 1.015625 -10.875 1.441406 -12.476562 2.296875 -13.90625 C 3.148438 -15.332031 4.332031 -16.453125 5.84375 -17.265625 C 7.363281 -18.078125 9.066406 -18.484375 10.953125 -18.484375 C 12.847656 -18.484375 14.546875 -18.078125 16.046875 -17.265625 C 17.554688 -16.453125 18.742188 -15.332031 19.609375 -13.90625 C 20.472656 -12.476562 20.90625 -10.875 20.90625 -9.09375 C 20.90625 -7.3125 20.472656 -5.703125 19.609375 -4.265625 C 18.742188 -2.835938 17.554688 -1.71875 16.046875 -0.90625 C 14.546875 -0.09375 12.847656 0.3125 10.953125 0.3125 Z M 10.953125 -3.265625 C 12.023438 -3.265625 12.992188 -3.507812 13.859375 -4 C 14.734375 -4.5 15.414062 -5.191406 15.90625 -6.078125 C 16.394531 -6.960938 16.640625 -7.96875 16.640625 -9.09375 C 16.640625 -10.21875 16.394531 -11.21875 15.90625 -12.09375 C 15.414062 -12.976562 14.734375 -13.664062 13.859375 -14.15625 C 12.992188 -14.65625 12.023438 -14.90625 10.953125 -14.90625 C 9.878906 -14.90625 8.910156 -14.65625 8.046875 -14.15625 C 7.179688 -13.664062 6.5 -12.976562 6 -12.09375 C 5.507812 -11.21875 5.265625 -10.21875 5.265625 -9.09375 C 5.265625 -7.96875 5.507812 -6.960938 6 -6.078125 C 6.5 -5.191406 7.179688 -4.5 8.046875 -4 C 8.910156 -3.507812 9.878906 -3.265625 10.953125 -3.265625 Z M 10.953125 -3.265625 "/></g></g></g><g fill="#545454" fill-opacity="1"><g transform="translate(68.075069, 46.495195)"><g><path d="M 14.4375 -9.375 L 18.28125 -9.375 L 18.28125 -2 C 17.289062 -1.257812 16.144531 -0.6875 14.84375 -0.28125 C 13.550781 0.113281 12.25 0.3125 10.9375 0.3125 C 9.050781 0.3125 7.351562 -0.0859375 5.84375 -0.890625 C 4.332031 -1.703125 3.148438 -2.820312 2.296875 -4.25 C 1.441406 -5.675781 1.015625 -7.289062 1.015625 -9.09375 C 1.015625 -10.894531 1.441406 -12.507812 2.296875 -13.9375 C 3.148438 -15.363281 4.335938 -16.476562 5.859375 -17.28125 C 7.390625 -18.082031 9.109375 -18.484375 11.015625 -18.484375 C 12.609375 -18.484375 14.050781 -18.210938 15.34375 -17.671875 C 16.644531 -17.140625 17.738281 -16.363281 18.625 -15.34375 L 15.921875 -12.859375 C 14.617188 -14.222656 13.050781 -14.90625 11.21875 -14.90625 C 10.0625 -14.90625 9.03125 -14.660156 8.125 -14.171875 C 7.226562 -13.691406 6.523438 -13.007812 6.015625 -12.125 C 5.515625 -11.238281 5.265625 -10.226562 5.265625 -9.09375 C 5.265625 -7.96875 5.515625 -6.960938 6.015625 -6.078125 C 6.523438 -5.191406 7.222656 -4.5 8.109375 -4 C 9.003906 -3.507812 10.023438 -3.265625 11.171875 -3.265625 C 12.378906 -3.265625 13.46875 -3.523438 14.4375 -4.046875 Z M 14.4375 -9.375 "/></g></g></g><g fill="#545454" fill-opacity="1"><g transform="translate(91.306879, 46.495195)"><g><path d="M 8.125 0.3125 C 6.6875 0.3125 5.296875 0.117188 3.953125 -0.265625 C 2.617188 -0.660156 1.546875 -1.171875 0.734375 -1.796875 L 2.15625 -4.953125 C 2.9375 -4.390625 3.863281 -3.929688 4.9375 -3.578125 C 6.007812 -3.234375 7.082031 -3.0625 8.15625 -3.0625 C 9.351562 -3.0625 10.234375 -3.238281 10.796875 -3.59375 C 11.367188 -3.945312 11.65625 -4.421875 11.65625 -5.015625 C 11.65625 -5.441406 11.484375 -5.796875 11.140625 -6.078125 C 10.804688 -6.367188 10.375 -6.597656 9.84375 -6.765625 C 9.320312 -6.941406 8.613281 -7.132812 7.71875 -7.34375 C 6.332031 -7.675781 5.195312 -8.003906 4.3125 -8.328125 C 3.425781 -8.660156 2.664062 -9.191406 2.03125 -9.921875 C 1.40625 -10.648438 1.09375 -11.617188 1.09375 -12.828125 C 1.09375 -13.878906 1.375 -14.832031 1.9375 -15.6875 C 2.507812 -16.550781 3.375 -17.234375 4.53125 -17.734375 C 5.6875 -18.234375 7.09375 -18.484375 8.75 -18.484375 C 9.90625 -18.484375 11.035156 -18.34375 12.140625 -18.0625 C 13.253906 -17.789062 14.226562 -17.394531 15.0625 -16.875 L 13.765625 -13.6875 C 12.085938 -14.632812 10.40625 -15.109375 8.71875 -15.109375 C 7.539062 -15.109375 6.671875 -14.914062 6.109375 -14.53125 C 5.546875 -14.15625 5.265625 -13.65625 5.265625 -13.03125 C 5.265625 -12.40625 5.585938 -11.941406 6.234375 -11.640625 C 6.890625 -11.335938 7.882812 -11.039062 9.21875 -10.75 C 10.601562 -10.414062 11.734375 -10.082031 12.609375 -9.75 C 13.492188 -9.425781 14.253906 -8.910156 14.890625 -8.203125 C 15.523438 -7.492188 15.84375 -6.535156 15.84375 -5.328125 C 15.84375 -4.285156 15.550781 -3.332031 14.96875 -2.46875 C 14.382812 -1.613281 13.515625 -0.9375 12.359375 -0.4375 C 11.203125 0.0625 9.789062 0.3125 8.125 0.3125 Z M 8.125 0.3125 "/></g></g></g><g fill="#545454" fill-opacity="1"><g transform="translate(111.086682, 46.495195)"><g><path d="M 5.921875 -14.75 L 0.109375 -14.75 L 0.109375 -18.171875 L 15.9375 -18.171875 L 15.9375 -14.75 L 10.125 -14.75 L 10.125 0 L 5.921875 0 Z M 5.921875 -14.75 "/></g></g></g><g fill="#545454" fill-opacity="1"><g transform="translate(130.347384, 46.495195)"><g><path d="M 16.234375 -3.375 L 16.234375 0 L 2.15625 0 L 2.15625 -18.171875 L 15.890625 -18.171875 L 15.890625 -14.796875 L 6.34375 -14.796875 L 6.34375 -10.859375 L 14.78125 -10.859375 L 14.78125 -7.578125 L 6.34375 -7.578125 L 6.34375 -3.375 Z M 16.234375 -3.375 "/></g></g></g><g fill="#545454" fill-opacity="1"><g transform="translate(150.983697, 46.495195)"><g><path d="M 13.734375 0 L 10.234375 -5.0625 L 6.359375 -5.0625 L 6.359375 0 L 2.15625 0 L 2.15625 -18.171875 L 10.03125 -18.171875 C 11.632812 -18.171875 13.03125 -17.898438 14.21875 -17.359375 C 15.40625 -16.828125 16.316406 -16.066406 16.953125 -15.078125 C 17.597656 -14.097656 17.921875 -12.929688 17.921875 -11.578125 C 17.921875 -10.234375 17.59375 -9.070312 16.9375 -8.09375 C 16.289062 -7.113281 15.367188 -6.363281 14.171875 -5.84375 L 18.25 0 Z M 13.65625 -11.578125 C 13.65625 -12.597656 13.328125 -13.378906 12.671875 -13.921875 C 12.015625 -14.472656 11.054688 -14.75 9.796875 -14.75 L 6.359375 -14.75 L 6.359375 -8.40625 L 9.796875 -8.40625 C 11.054688 -8.40625 12.015625 -8.679688 12.671875 -9.234375 C 13.328125 -9.796875 13.65625 -10.578125 13.65625 -11.578125 Z M 13.65625 -11.578125 "/></g></g></g></svg>