<svg xmlns="http://www.w3.org/2000/svg" xmlns:xlink="http://www.w3.org/1999/xlink" width="600" zoomAndPan="magnify" viewBox="0 0 375 374.999991" height="600" preserveAspectRatio="xMidYMid meet" version="1.0"><defs><g/><clipPath id="id1"><path d="M 234.53125 174.203125 L 258.53125 174.203125 L 258.53125 200.453125 L 234.53125 200.453125 Z M 234.53125 174.203125 " clip-rule="nonzero"/></clipPath><clipPath id="id2"><path d="M 248.105469 175.917969 L 256.503906 180.644531 C 256.671875 180.53125 256.878906 180.464844 257.101562 180.464844 C 257.242188 180.464844 257.382812 180.492188 257.507812 180.542969 C 257.636719 180.59375 257.75 180.671875 257.847656 180.765625 C 257.945312 180.859375 258.023438 180.972656 258.078125 181.097656 C 258.128906 181.222656 258.160156 181.355469 258.160156 181.492188 C 258.160156 181.632812 258.128906 181.765625 258.078125 181.886719 C 258.023438 182.011719 257.945312 182.125 257.847656 182.21875 C 257.777344 182.289062 257.695312 182.351562 257.605469 182.398438 C 257.589844 182.40625 257.570312 182.414062 257.554688 182.421875 L 257.554688 191.867188 C 257.613281 191.890625 257.667969 191.917969 257.726562 191.949219 C 257.914062 192.054688 258.070312 192.195312 258.195312 192.351562 C 258.324219 192.515625 258.417969 192.703125 258.472656 192.898438 C 258.699219 193.722656 258.191406 194.585938 257.335938 194.808594 C 257.136719 194.863281 256.925781 194.875 256.714844 194.847656 C 256.539062 194.828125 256.363281 194.773438 256.199219 194.691406 L 256.191406 194.691406 L 256.121094 194.652344 C 256.066406 194.621094 256.011719 194.585938 255.960938 194.550781 L 247.804688 199.136719 C 247.808594 199.164062 247.808594 199.1875 247.808594 199.210938 C 247.808594 199.378906 247.773438 199.535156 247.710938 199.683594 L 247.710938 199.6875 C 247.644531 199.839844 247.550781 199.976562 247.433594 200.089844 C 247.320312 200.203125 247.179688 200.292969 247.019531 200.355469 C 246.871094 200.417969 246.707031 200.453125 246.535156 200.453125 C 246.363281 200.453125 246.199219 200.417969 246.046875 200.355469 C 245.890625 200.292969 245.75 200.203125 245.632812 200.089844 C 245.515625 199.976562 245.421875 199.839844 245.359375 199.6875 C 245.296875 199.539062 245.261719 199.378906 245.261719 199.210938 C 245.261719 199.191406 245.261719 199.171875 245.261719 199.152344 L 237.105469 194.5625 C 237.050781 194.601562 236.996094 194.640625 236.9375 194.671875 L 236.933594 194.671875 C 236.746094 194.777344 236.546875 194.84375 236.34375 194.867188 C 236.132812 194.894531 235.917969 194.882812 235.71875 194.828125 C 235.519531 194.777344 235.328125 194.6875 235.160156 194.558594 C 235 194.4375 234.855469 194.285156 234.75 194.101562 L 234.746094 194.097656 C 234.636719 193.917969 234.574219 193.722656 234.546875 193.523438 C 234.519531 193.316406 234.535156 193.113281 234.585938 192.917969 C 234.640625 192.71875 234.734375 192.535156 234.863281 192.371094 C 234.988281 192.214844 235.144531 192.074219 235.335938 191.96875 L 235.40625 191.929688 L 235.410156 191.929688 C 235.4375 191.917969 235.464844 191.902344 235.492188 191.890625 L 235.492188 182.441406 C 235.46875 182.433594 235.445312 182.421875 235.421875 182.410156 C 235.316406 182.359375 235.226562 182.296875 235.148438 182.21875 C 235.050781 182.125 234.972656 182.011719 234.921875 181.886719 C 234.867188 181.761719 234.839844 181.628906 234.839844 181.492188 C 234.839844 181.355469 234.867188 181.222656 234.921875 181.097656 C 234.972656 180.972656 235.050781 180.859375 235.148438 180.765625 C 235.339844 180.578125 235.605469 180.464844 235.894531 180.464844 C 236.039062 180.464844 236.175781 180.492188 236.300781 180.542969 C 236.378906 180.574219 236.449219 180.613281 236.515625 180.660156 L 244.917969 175.933594 C 244.910156 175.878906 244.90625 175.820312 244.90625 175.765625 C 244.90625 175.554688 244.953125 175.351562 245.03125 175.167969 C 245.171875 174.832031 245.335938 174.695312 245.605469 174.476562 C 245.695312 174.414062 245.796875 174.363281 245.898438 174.320312 C 246.085938 174.246094 246.296875 174.203125 246.511719 174.203125 C 246.726562 174.203125 246.933594 174.246094 247.121094 174.320312 L 247.125 174.320312 C 247.320312 174.402344 247.496094 174.515625 247.644531 174.660156 C 247.789062 174.804688 247.910156 174.976562 247.992188 175.167969 C 248.070312 175.355469 248.113281 175.554688 248.113281 175.765625 C 248.113281 175.816406 248.109375 175.871094 248.105469 175.921875 Z M 235.242188 193.496094 Z M 237.058594 193.375 C 237.113281 192.328125 235.570312 192.070312 235.265625 193.078125 C 235.246094 193.144531 235.238281 193.214844 235.234375 193.285156 C 235.230469 193.355469 235.234375 193.425781 235.242188 193.496094 C 235.445312 194.523438 237.003906 194.421875 237.058594 193.375 Z M 245.617188 175.714844 C 245.613281 175.785156 245.617188 175.855469 245.628906 175.925781 C 245.671875 176.148438 245.796875 176.335938 245.96875 176.464844 C 246.140625 176.59375 246.359375 176.664062 246.589844 176.648438 C 246.820312 176.632812 247.027344 176.535156 247.179688 176.382812 C 247.332031 176.234375 247.433594 176.03125 247.445312 175.804688 C 247.453125 175.578125 247.378906 175.363281 247.242188 175.199219 C 247.105469 175.035156 246.910156 174.917969 246.683594 174.878906 C 246.453125 174.839844 246.226562 174.886719 246.042969 175 C 245.859375 175.113281 245.714844 175.289062 245.648438 175.503906 C 245.632812 175.574219 245.621094 175.644531 245.617188 175.714844 Z M 256.015625 193.261719 C 256.011719 193.332031 256.015625 193.402344 256.027344 193.472656 C 256.070312 193.695312 256.195312 193.882812 256.367188 194.011719 C 256.539062 194.140625 256.757812 194.210938 256.988281 194.199219 C 257.222656 194.183594 257.429688 194.082031 257.582031 193.933594 C 257.734375 193.78125 257.832031 193.578125 257.84375 193.351562 C 257.855469 193.125 257.777344 192.914062 257.640625 192.75 C 257.507812 192.582031 257.308594 192.464844 257.082031 192.425781 C 256.851562 192.386719 256.628906 192.4375 256.441406 192.546875 C 256.257812 192.660156 256.117188 192.835938 256.050781 193.054688 C 256.03125 193.121094 256.019531 193.191406 256.015625 193.261719 Z M 236.925781 181.269531 C 236.941406 181.34375 236.953125 181.417969 236.953125 181.492188 C 236.953125 181.628906 236.921875 181.765625 236.871094 181.886719 C 236.816406 182.011719 236.738281 182.125 236.640625 182.21875 C 236.550781 182.304688 236.445312 182.378906 236.328125 182.429688 C 236.300781 182.441406 236.269531 182.453125 236.238281 182.464844 L 236.238281 191.761719 C 236.300781 191.765625 236.359375 191.773438 236.417969 191.785156 L 245.300781 176.789062 C 245.253906 176.738281 245.214844 176.683594 245.175781 176.628906 L 236.925781 181.273438 Z M 245.144531 187.597656 L 245.167969 187.609375 C 245.222656 187.636719 245.269531 187.667969 245.316406 187.703125 L 250.753906 184.644531 C 250.738281 184.582031 250.734375 184.519531 250.734375 184.457031 C 250.734375 184.320312 250.761719 184.1875 250.816406 184.066406 L 250.816406 184.0625 C 250.863281 183.949219 250.929688 183.847656 251.015625 183.761719 L 247.128906 177.203125 C 247.082031 177.222656 247.03125 177.242188 246.980469 177.257812 C 246.867188 177.289062 246.75 177.3125 246.632812 177.320312 L 245.144531 187.601562 Z M 245.710938 188.324219 C 245.722656 188.386719 245.730469 188.453125 245.730469 188.519531 L 245.730469 188.546875 L 255.597656 192.425781 C 255.664062 192.328125 255.738281 192.242188 255.820312 192.167969 C 255.859375 192.132812 255.898438 192.101562 255.9375 192.070312 L 252.023438 185.460938 C 251.949219 185.476562 251.871094 185.484375 251.789062 185.484375 C 251.648438 185.484375 251.511719 185.457031 251.386719 185.40625 C 251.296875 185.371094 251.214844 185.324219 251.140625 185.265625 L 245.710938 188.320312 Z M 245.449219 189.21875 C 245.4375 189.230469 245.429688 189.238281 245.421875 189.25 C 245.230469 189.433594 244.964844 189.550781 244.675781 189.550781 C 244.53125 189.550781 244.394531 189.523438 244.269531 189.46875 C 244.164062 189.425781 244.066406 189.367188 243.980469 189.296875 L 237.664062 192.851562 C 237.675781 192.890625 237.6875 192.933594 237.699219 192.972656 L 237.699219 192.976562 C 237.707031 193.007812 237.714844 193.042969 237.71875 193.078125 L 255.253906 193.078125 L 245.449219 189.222656 Z M 243.628906 188.65625 C 243.621094 188.609375 243.617188 188.566406 243.617188 188.519531 C 243.617188 188.382812 243.644531 188.25 243.699219 188.128906 C 243.753906 188 243.832031 187.886719 243.929688 187.792969 C 244.023438 187.703125 244.136719 187.625 244.261719 187.574219 C 244.304688 187.554688 244.351562 187.539062 244.398438 187.527344 L 245.882812 177.253906 L 237.105469 192.078125 C 237.128906 192.097656 237.15625 192.117188 237.179688 192.136719 C 237.214844 192.164062 237.246094 192.195312 237.28125 192.230469 Z M 251.789062 183.429688 C 251.929688 183.429688 252.066406 183.457031 252.191406 183.507812 C 252.324219 183.558594 252.4375 183.636719 252.535156 183.730469 C 252.632812 183.824219 252.710938 183.9375 252.765625 184.066406 C 252.816406 184.1875 252.847656 184.320312 252.847656 184.457031 C 252.847656 184.597656 252.816406 184.730469 252.765625 184.851562 C 252.734375 184.925781 252.691406 184.996094 252.644531 185.058594 L 256.617188 191.769531 C 256.679688 191.757812 256.742188 191.746094 256.804688 191.742188 L 256.804688 182.480469 C 256.769531 182.46875 256.734375 182.457031 256.699219 182.441406 C 256.566406 182.390625 256.453125 182.3125 256.355469 182.21875 C 256.257812 182.125 256.179688 182.011719 256.125 181.886719 C 256.074219 181.761719 256.046875 181.628906 256.046875 181.492188 C 256.046875 181.410156 256.054688 181.328125 256.078125 181.246094 L 247.851562 176.617188 L 247.738281 176.773438 L 251.683594 183.433594 C 251.71875 183.429688 251.753906 183.429688 251.789062 183.429688 Z M 237.65625 193.808594 C 237.636719 193.867188 237.613281 193.929688 237.582031 193.988281 L 245.511719 198.453125 L 245.636719 198.332031 C 245.867188 198.105469 246.183594 197.96875 246.535156 197.96875 C 246.707031 197.96875 246.871094 198 247.023438 198.0625 C 247.179688 198.125 247.320312 198.21875 247.4375 198.332031 C 247.472656 198.367188 247.507812 198.40625 247.542969 198.449219 L 255.480469 193.980469 C 255.453125 193.921875 255.429688 193.867188 255.40625 193.808594 Z M 237.65625 193.808594 " clip-rule="nonzero"/></clipPath><linearGradient x1="15.755132" gradientTransform="matrix(0.0890895, 0, 0, 0.0868343, 234.534329, 174.201446)" y1="314.853128" x2="267.217098" gradientUnits="userSpaceOnUse" y2="-1.671212" id="id3"><stop stop-opacity="1" stop-color="rgb(74.031067%, 1.509094%, 80.296326%)" offset="0"/><stop stop-opacity="1" stop-color="rgb(73.55957%, 1.933289%, 80.378723%)" offset="0.00390625"/><stop stop-opacity="1" stop-color="rgb(73.0896%, 2.359009%, 80.462646%)" offset="0.0078125"/><stop stop-opacity="1" stop-color="rgb(72.618103%, 2.784729%, 80.54657%)" offset="0.0117188"/><stop stop-opacity="1" stop-color="rgb(72.148132%, 3.210449%, 80.630493%)" offset="0.015625"/><stop stop-opacity="1" stop-color="rgb(71.678162%, 3.636169%, 80.712891%)" offset="0.0195313"/><stop stop-opacity="1" stop-color="rgb(71.208191%, 4.06189%, 80.796814%)" offset="0.0234375"/><stop stop-opacity="1" stop-color="rgb(70.736694%, 4.486084%, 80.880737%)" offset="0.0273438"/><stop stop-opacity="1" stop-color="rgb(70.266724%, 4.911804%, 80.964661%)" offset="0.03125"/><stop stop-opacity="1" stop-color="rgb(69.796753%, 5.337524%, 81.048584%)" offset="0.0351562"/><stop stop-opacity="1" stop-color="rgb(69.326782%, 5.763245%, 81.132507%)" offset="0.0390625"/><stop stop-opacity="1" stop-color="rgb(68.855286%, 6.188965%, 81.214905%)" offset="0.0429688"/><stop stop-opacity="1" stop-color="rgb(68.385315%, 6.614685%, 81.298828%)" offset="0.046875"/><stop stop-opacity="1" stop-color="rgb(67.915344%, 7.038879%, 81.382751%)" offset="0.0507812"/><stop stop-opacity="1" stop-color="rgb(67.445374%, 7.4646%, 81.466675%)" offset="0.0546875"/><stop stop-opacity="1" stop-color="rgb(66.973877%, 7.89032%, 81.549072%)" offset="0.0585938"/><stop stop-opacity="1" stop-color="rgb(66.503906%, 8.31604%, 81.632996%)" offset="0.0625"/><stop stop-opacity="1" stop-color="rgb(66.033936%, 8.74176%, 81.716919%)" offset="0.0664062"/><stop stop-opacity="1" stop-color="rgb(65.563965%, 9.16748%, 81.800842%)" offset="0.0703125"/><stop stop-opacity="1" stop-color="rgb(65.092468%, 9.591675%, 81.88324%)" offset="0.0742188"/><stop stop-opacity="1" stop-color="rgb(64.622498%, 10.017395%, 81.967163%)" offset="0.078125"/><stop stop-opacity="1" stop-color="rgb(64.152527%, 10.443115%, 82.051086%)" offset="0.0820313"/><stop stop-opacity="1" stop-color="rgb(63.682556%, 10.868835%, 82.13501%)" offset="0.0859375"/><stop stop-opacity="1" stop-color="rgb(63.21106%, 11.294556%, 82.217407%)" offset="0.0898438"/><stop stop-opacity="1" stop-color="rgb(62.741089%, 11.720276%, 82.301331%)" offset="0.09375"/><stop stop-opacity="1" stop-color="rgb(62.271118%, 12.14447%, 82.385254%)" offset="0.0976563"/><stop stop-opacity="1" stop-color="rgb(61.801147%, 12.57019%, 82.469177%)" offset="0.101563"/><stop stop-opacity="1" stop-color="rgb(61.329651%, 12.995911%, 82.553101%)" offset="0.105469"/><stop stop-opacity="1" stop-color="rgb(60.85968%, 13.421631%, 82.637024%)" offset="0.109375"/><stop stop-opacity="1" stop-color="rgb(60.389709%, 13.847351%, 82.719421%)" offset="0.113281"/><stop stop-opacity="1" stop-color="rgb(59.919739%, 14.273071%, 82.803345%)" offset="0.117188"/><stop stop-opacity="1" stop-color="rgb(59.448242%, 14.697266%, 82.887268%)" offset="0.121094"/><stop stop-opacity="1" stop-color="rgb(58.978271%, 15.122986%, 82.971191%)" offset="0.125"/><stop stop-opacity="1" stop-color="rgb(58.508301%, 15.548706%, 83.053589%)" offset="0.128906"/><stop stop-opacity="1" stop-color="rgb(58.03833%, 15.974426%, 83.137512%)" offset="0.132813"/><stop stop-opacity="1" stop-color="rgb(57.566833%, 16.400146%, 83.221436%)" offset="0.136719"/><stop stop-opacity="1" stop-color="rgb(57.096863%, 16.825867%, 83.305359%)" offset="0.140625"/><stop stop-opacity="1" stop-color="rgb(56.626892%, 17.250061%, 83.387756%)" offset="0.144531"/><stop stop-opacity="1" stop-color="rgb(56.156921%, 17.675781%, 83.47168%)" offset="0.148438"/><stop stop-opacity="1" stop-color="rgb(55.685425%, 18.101501%, 83.555603%)" offset="0.152344"/><stop stop-opacity="1" stop-color="rgb(55.215454%, 18.527222%, 83.639526%)" offset="0.15625"/><stop stop-opacity="1" stop-color="rgb(54.743958%, 18.952942%, 83.72345%)" offset="0.160156"/><stop stop-opacity="1" stop-color="rgb(54.273987%, 19.378662%, 83.807373%)" offset="0.164062"/><stop stop-opacity="1" stop-color="rgb(53.804016%, 19.802856%, 83.889771%)" offset="0.167969"/><stop stop-opacity="1" stop-color="rgb(53.334045%, 20.228577%, 83.973694%)" offset="0.171875"/><stop stop-opacity="1" stop-color="rgb(52.862549%, 20.654297%, 84.057617%)" offset="0.175781"/><stop stop-opacity="1" stop-color="rgb(52.392578%, 21.080017%, 84.141541%)" offset="0.179688"/><stop stop-opacity="1" stop-color="rgb(51.922607%, 21.504211%, 84.223938%)" offset="0.183594"/><stop stop-opacity="1" stop-color="rgb(51.452637%, 21.929932%, 84.307861%)" offset="0.1875"/><stop stop-opacity="1" stop-color="rgb(50.98114%, 22.355652%, 84.391785%)" offset="0.191406"/><stop stop-opacity="1" stop-color="rgb(50.511169%, 22.781372%, 84.475708%)" offset="0.195312"/><stop stop-opacity="1" stop-color="rgb(50.041199%, 23.207092%, 84.558105%)" offset="0.199219"/><stop stop-opacity="1" stop-color="rgb(49.571228%, 23.632812%, 84.642029%)" offset="0.203125"/><stop stop-opacity="1" stop-color="rgb(49.099731%, 24.057007%, 84.725952%)" offset="0.207031"/><stop stop-opacity="1" stop-color="rgb(48.629761%, 24.482727%, 84.809875%)" offset="0.210938"/><stop stop-opacity="1" stop-color="rgb(48.15979%, 24.908447%, 84.893799%)" offset="0.214844"/><stop stop-opacity="1" stop-color="rgb(47.689819%, 25.334167%, 84.977722%)" offset="0.21875"/><stop stop-opacity="1" stop-color="rgb(47.218323%, 25.759888%, 85.06012%)" offset="0.222656"/><stop stop-opacity="1" stop-color="rgb(46.748352%, 26.185608%, 85.144043%)" offset="0.226563"/><stop stop-opacity="1" stop-color="rgb(46.278381%, 26.609802%, 85.227966%)" offset="0.230469"/><stop stop-opacity="1" stop-color="rgb(45.808411%, 27.035522%, 85.31189%)" offset="0.234375"/><stop stop-opacity="1" stop-color="rgb(45.336914%, 27.461243%, 85.394287%)" offset="0.238281"/><stop stop-opacity="1" stop-color="rgb(44.866943%, 27.886963%, 85.47821%)" offset="0.242188"/><stop stop-opacity="1" stop-color="rgb(44.396973%, 28.312683%, 85.562134%)" offset="0.246094"/><stop stop-opacity="1" stop-color="rgb(43.927002%, 28.738403%, 85.646057%)" offset="0.25"/><stop stop-opacity="1" stop-color="rgb(43.455505%, 29.162598%, 85.728455%)" offset="0.253906"/><stop stop-opacity="1" stop-color="rgb(42.985535%, 29.588318%, 85.812378%)" offset="0.257812"/><stop stop-opacity="1" stop-color="rgb(42.515564%, 30.014038%, 85.896301%)" offset="0.261719"/><stop stop-opacity="1" stop-color="rgb(42.045593%, 30.439758%, 85.980225%)" offset="0.265625"/><stop stop-opacity="1" stop-color="rgb(41.574097%, 30.865479%, 86.064148%)" offset="0.269531"/><stop stop-opacity="1" stop-color="rgb(41.104126%, 31.291199%, 86.148071%)" offset="0.273437"/><stop stop-opacity="1" stop-color="rgb(40.634155%, 31.715393%, 86.230469%)" offset="0.277344"/><stop stop-opacity="1" stop-color="rgb(40.164185%, 32.141113%, 86.314392%)" offset="0.28125"/><stop stop-opacity="1" stop-color="rgb(39.692688%, 32.566833%, 86.398315%)" offset="0.285156"/><stop stop-opacity="1" stop-color="rgb(39.222717%, 32.992554%, 86.482239%)" offset="0.289062"/><stop stop-opacity="1" stop-color="rgb(38.751221%, 33.418274%, 86.564636%)" offset="0.292969"/><stop stop-opacity="1" stop-color="rgb(38.28125%, 33.843994%, 86.64856%)" offset="0.296875"/><stop stop-opacity="1" stop-color="rgb(37.858582%, 34.225464%, 86.724854%)" offset="0.300781"/><stop stop-opacity="1" stop-color="rgb(37.437439%, 34.608459%, 86.802673%)" offset="0.304688"/><stop stop-opacity="1" stop-color="rgb(37.036133%, 34.971619%, 86.875916%)" offset="0.308594"/><stop stop-opacity="1" stop-color="rgb(36.636353%, 35.336304%, 86.950684%)" offset="0.3125"/><stop stop-opacity="1" stop-color="rgb(36.235046%, 35.700989%, 87.023926%)" offset="0.316406"/><stop stop-opacity="1" stop-color="rgb(35.83374%, 36.065674%, 87.098694%)" offset="0.320312"/><stop stop-opacity="1" stop-color="rgb(35.432434%, 36.428833%, 87.171936%)" offset="0.324219"/><stop stop-opacity="1" stop-color="rgb(35.031128%, 36.793518%, 87.245178%)" offset="0.328125"/><stop stop-opacity="1" stop-color="rgb(34.629822%, 37.156677%, 87.31842%)" offset="0.332031"/><stop stop-opacity="1" stop-color="rgb(34.230042%, 37.521362%, 87.393188%)" offset="0.335937"/><stop stop-opacity="1" stop-color="rgb(33.828735%, 37.884521%, 87.466431%)" offset="0.339844"/><stop stop-opacity="1" stop-color="rgb(33.427429%, 38.249207%, 87.541199%)" offset="0.34375"/><stop stop-opacity="1" stop-color="rgb(33.026123%, 38.613892%, 87.614441%)" offset="0.347656"/><stop stop-opacity="1" stop-color="rgb(32.624817%, 38.978577%, 87.689209%)" offset="0.351562"/><stop stop-opacity="1" stop-color="rgb(32.223511%, 39.341736%, 87.762451%)" offset="0.355469"/><stop stop-opacity="1" stop-color="rgb(31.82373%, 39.706421%, 87.837219%)" offset="0.359375"/><stop stop-opacity="1" stop-color="rgb(31.422424%, 40.06958%, 87.910461%)" offset="0.363281"/><stop stop-opacity="1" stop-color="rgb(31.021118%, 40.434265%, 87.985229%)" offset="0.367187"/><stop stop-opacity="1" stop-color="rgb(30.619812%, 40.79895%, 88.058472%)" offset="0.371094"/><stop stop-opacity="1" stop-color="rgb(30.218506%, 41.163635%, 88.131714%)" offset="0.375"/><stop stop-opacity="1" stop-color="rgb(29.8172%, 41.526794%, 88.204956%)" offset="0.378906"/><stop stop-opacity="1" stop-color="rgb(29.417419%, 41.891479%, 88.279724%)" offset="0.382812"/><stop stop-opacity="1" stop-color="rgb(29.016113%, 42.254639%, 88.352966%)" offset="0.386719"/><stop stop-opacity="1" stop-color="rgb(28.614807%, 42.619324%, 88.427734%)" offset="0.390625"/><stop stop-opacity="1" stop-color="rgb(28.213501%, 42.982483%, 88.500977%)" offset="0.394531"/><stop stop-opacity="1" stop-color="rgb(27.812195%, 43.347168%, 88.575745%)" offset="0.398437"/><stop stop-opacity="1" stop-color="rgb(27.410889%, 43.711853%, 88.648987%)" offset="0.402344"/><stop stop-opacity="1" stop-color="rgb(27.009583%, 44.076538%, 88.723755%)" offset="0.40625"/><stop stop-opacity="1" stop-color="rgb(26.608276%, 44.439697%, 88.796997%)" offset="0.410156"/><stop stop-opacity="1" stop-color="rgb(26.208496%, 44.804382%, 88.871765%)" offset="0.414062"/><stop stop-opacity="1" stop-color="rgb(25.80719%, 45.167542%, 88.945007%)" offset="0.417969"/><stop stop-opacity="1" stop-color="rgb(25.405884%, 45.532227%, 89.019775%)" offset="0.421875"/><stop stop-opacity="1" stop-color="rgb(25.004578%, 45.895386%, 89.093018%)" offset="0.425781"/><stop stop-opacity="1" stop-color="rgb(24.603271%, 46.260071%, 89.16626%)" offset="0.429687"/><stop stop-opacity="1" stop-color="rgb(24.201965%, 46.624756%, 89.239502%)" offset="0.433594"/><stop stop-opacity="1" stop-color="rgb(23.802185%, 46.989441%, 89.31427%)" offset="0.4375"/><stop stop-opacity="1" stop-color="rgb(23.400879%, 47.3526%, 89.387512%)" offset="0.441406"/><stop stop-opacity="1" stop-color="rgb(22.999573%, 47.717285%, 89.46228%)" offset="0.445312"/><stop stop-opacity="1" stop-color="rgb(22.598267%, 48.080444%, 89.535522%)" offset="0.449219"/><stop stop-opacity="1" stop-color="rgb(22.19696%, 48.445129%, 89.610291%)" offset="0.453125"/><stop stop-opacity="1" stop-color="rgb(21.795654%, 48.809814%, 89.683533%)" offset="0.457031"/><stop stop-opacity="1" stop-color="rgb(21.395874%, 49.1745%, 89.758301%)" offset="0.460937"/><stop stop-opacity="1" stop-color="rgb(20.994568%, 49.537659%, 89.831543%)" offset="0.464844"/><stop stop-opacity="1" stop-color="rgb(20.593262%, 49.902344%, 89.906311%)" offset="0.46875"/><stop stop-opacity="1" stop-color="rgb(20.191956%, 50.265503%, 89.979553%)" offset="0.472656"/><stop stop-opacity="1" stop-color="rgb(19.790649%, 50.630188%, 90.052795%)" offset="0.476562"/><stop stop-opacity="1" stop-color="rgb(19.389343%, 50.993347%, 90.126038%)" offset="0.480469"/><stop stop-opacity="1" stop-color="rgb(18.989563%, 51.358032%, 90.200806%)" offset="0.484375"/><stop stop-opacity="1" stop-color="rgb(18.588257%, 51.722717%, 90.274048%)" offset="0.488281"/><stop stop-opacity="1" stop-color="rgb(18.186951%, 52.087402%, 90.348816%)" offset="0.492187"/><stop stop-opacity="1" stop-color="rgb(17.785645%, 52.450562%, 90.422058%)" offset="0.496094"/><stop stop-opacity="1" stop-color="rgb(17.384338%, 52.815247%, 90.496826%)" offset="0.5"/><stop stop-opacity="1" stop-color="rgb(16.983032%, 53.178406%, 90.570068%)" offset="0.503906"/><stop stop-opacity="1" stop-color="rgb(16.581726%, 53.543091%, 90.644836%)" offset="0.507812"/><stop stop-opacity="1" stop-color="rgb(16.18042%, 53.907776%, 90.718079%)" offset="0.511719"/><stop stop-opacity="1" stop-color="rgb(15.78064%, 54.272461%, 90.792847%)" offset="0.515625"/><stop stop-opacity="1" stop-color="rgb(15.379333%, 54.63562%, 90.866089%)" offset="0.519531"/><stop stop-opacity="1" stop-color="rgb(14.978027%, 55.000305%, 90.939331%)" offset="0.523437"/><stop stop-opacity="1" stop-color="rgb(14.576721%, 55.363464%, 91.012573%)" offset="0.527344"/><stop stop-opacity="1" stop-color="rgb(14.175415%, 55.728149%, 91.087341%)" offset="0.53125"/><stop stop-opacity="1" stop-color="rgb(13.774109%, 56.091309%, 91.160583%)" offset="0.535156"/><stop stop-opacity="1" stop-color="rgb(13.374329%, 56.455994%, 91.235352%)" offset="0.539062"/><stop stop-opacity="1" stop-color="rgb(12.973022%, 56.820679%, 91.308594%)" offset="0.542969"/><stop stop-opacity="1" stop-color="rgb(12.571716%, 57.185364%, 91.383362%)" offset="0.546875"/><stop stop-opacity="1" stop-color="rgb(12.17041%, 57.548523%, 91.456604%)" offset="0.550781"/><stop stop-opacity="1" stop-color="rgb(11.769104%, 57.913208%, 91.531372%)" offset="0.554688"/><stop stop-opacity="1" stop-color="rgb(11.367798%, 58.276367%, 91.604614%)" offset="0.558594"/><stop stop-opacity="1" stop-color="rgb(10.968018%, 58.641052%, 91.679382%)" offset="0.5625"/><stop stop-opacity="1" stop-color="rgb(10.566711%, 59.004211%, 91.752625%)" offset="0.566406"/><stop stop-opacity="1" stop-color="rgb(10.165405%, 59.368896%, 91.825867%)" offset="0.570313"/><stop stop-opacity="1" stop-color="rgb(9.764099%, 59.733582%, 91.899109%)" offset="0.574219"/><stop stop-opacity="1" stop-color="rgb(9.362793%, 60.098267%, 91.973877%)" offset="0.578125"/><stop stop-opacity="1" stop-color="rgb(8.961487%, 60.461426%, 92.047119%)" offset="0.582031"/><stop stop-opacity="1" stop-color="rgb(8.560181%, 60.826111%, 92.121887%)" offset="0.585938"/><stop stop-opacity="1" stop-color="rgb(8.158875%, 61.18927%, 92.195129%)" offset="0.589844"/><stop stop-opacity="1" stop-color="rgb(7.759094%, 61.553955%, 92.269897%)" offset="0.59375"/><stop stop-opacity="1" stop-color="rgb(7.357788%, 61.91864%, 92.34314%)" offset="0.597656"/><stop stop-opacity="1" stop-color="rgb(6.956482%, 62.283325%, 92.417908%)" offset="0.601562"/><stop stop-opacity="1" stop-color="rgb(6.555176%, 62.646484%, 92.49115%)" offset="0.605469"/><stop stop-opacity="1" stop-color="rgb(6.15387%, 63.011169%, 92.565918%)" offset="0.609375"/><stop stop-opacity="1" stop-color="rgb(5.752563%, 63.374329%, 92.63916%)" offset="0.613281"/><stop stop-opacity="1" stop-color="rgb(5.352783%, 63.739014%, 92.712402%)" offset="0.617188"/><stop stop-opacity="1" stop-color="rgb(4.951477%, 64.102173%, 92.785645%)" offset="0.621094"/><stop stop-opacity="1" stop-color="rgb(4.550171%, 64.466858%, 92.860413%)" offset="0.625"/><stop stop-opacity="1" stop-color="rgb(4.148865%, 64.831543%, 92.933655%)" offset="0.628906"/><stop stop-opacity="1" stop-color="rgb(3.747559%, 65.196228%, 93.008423%)" offset="0.632812"/><stop stop-opacity="1" stop-color="rgb(3.346252%, 65.559387%, 93.081665%)" offset="0.636719"/><stop stop-opacity="1" stop-color="rgb(2.946472%, 65.924072%, 93.156433%)" offset="0.640625"/><stop stop-opacity="1" stop-color="rgb(2.545166%, 66.287231%, 93.229675%)" offset="0.644531"/><stop stop-opacity="1" stop-color="rgb(2.14386%, 66.651917%, 93.304443%)" offset="0.648438"/><stop stop-opacity="1" stop-color="rgb(1.742554%, 67.015076%, 93.377686%)" offset="0.652344"/><stop stop-opacity="1" stop-color="rgb(1.341248%, 67.379761%, 93.452454%)" offset="0.65625"/><stop stop-opacity="1" stop-color="rgb(0.939941%, 67.744446%, 93.525696%)" offset="0.660156"/><stop stop-opacity="1" stop-color="rgb(0.540161%, 68.109131%, 93.600464%)" offset="0.664062"/><stop stop-opacity="1" stop-color="rgb(0.270081%, 68.467712%, 93.67218%)" offset="0.667969"/><stop stop-opacity="1" stop-color="rgb(0%, 68.826294%, 93.745422%)" offset="0.671875"/><stop stop-opacity="1" stop-color="rgb(0%, 69.172668%, 93.814087%)" offset="0.675781"/><stop stop-opacity="1" stop-color="rgb(0%, 69.519043%, 93.884277%)" offset="0.679688"/><stop stop-opacity="1" stop-color="rgb(0%, 69.865417%, 93.952942%)" offset="0.683594"/><stop stop-opacity="1" stop-color="rgb(0%, 70.213318%, 94.023132%)" offset="0.6875"/><stop stop-opacity="1" stop-color="rgb(0%, 70.559692%, 94.091797%)" offset="0.691406"/><stop stop-opacity="1" stop-color="rgb(0%, 70.907593%, 94.161987%)" offset="0.695312"/><stop stop-opacity="1" stop-color="rgb(0%, 71.253967%, 94.230652%)" offset="0.699219"/><stop stop-opacity="1" stop-color="rgb(0%, 71.601868%, 94.300842%)" offset="0.703125"/><stop stop-opacity="1" stop-color="rgb(0%, 71.948242%, 94.371033%)" offset="0.707031"/><stop stop-opacity="1" stop-color="rgb(0%, 72.296143%, 94.441223%)" offset="0.710938"/><stop stop-opacity="1" stop-color="rgb(0%, 72.642517%, 94.509888%)" offset="0.714844"/><stop stop-opacity="1" stop-color="rgb(0%, 72.988892%, 94.580078%)" offset="0.71875"/><stop stop-opacity="1" stop-color="rgb(0%, 73.335266%, 94.648743%)" offset="0.722656"/><stop stop-opacity="1" stop-color="rgb(0%, 73.683167%, 94.718933%)" offset="0.726563"/><stop stop-opacity="1" stop-color="rgb(0%, 74.029541%, 94.787598%)" offset="0.730469"/><stop stop-opacity="1" stop-color="rgb(0%, 74.377441%, 94.857788%)" offset="0.734375"/><stop stop-opacity="1" stop-color="rgb(0%, 74.723816%, 94.927979%)" offset="0.738281"/><stop stop-opacity="1" stop-color="rgb(0%, 75.071716%, 94.998169%)" offset="0.742188"/><stop stop-opacity="1" stop-color="rgb(0%, 75.418091%, 95.066833%)" offset="0.746094"/><stop stop-opacity="1" stop-color="rgb(0%, 75.764465%, 95.137024%)" offset="0.75"/><stop stop-opacity="1" stop-color="rgb(0%, 76.11084%, 95.205688%)" offset="0.753906"/><stop stop-opacity="1" stop-color="rgb(0%, 76.45874%, 95.275879%)" offset="0.757813"/><stop stop-opacity="1" stop-color="rgb(0%, 76.805115%, 95.344543%)" offset="0.761719"/><stop stop-opacity="1" stop-color="rgb(0%, 77.153015%, 95.414734%)" offset="0.765625"/><stop stop-opacity="1" stop-color="rgb(0%, 77.49939%, 95.484924%)" offset="0.769531"/><stop stop-opacity="1" stop-color="rgb(0%, 77.84729%, 95.555115%)" offset="0.773438"/><stop stop-opacity="1" stop-color="rgb(0%, 78.193665%, 95.623779%)" offset="0.777344"/><stop stop-opacity="1" stop-color="rgb(0%, 78.540039%, 95.69397%)" offset="0.78125"/><stop stop-opacity="1" stop-color="rgb(0%, 78.886414%, 95.762634%)" offset="0.785156"/><stop stop-opacity="1" stop-color="rgb(0%, 79.234314%, 95.832825%)" offset="0.789062"/><stop stop-opacity="1" stop-color="rgb(0%, 79.580688%, 95.901489%)" offset="0.792969"/><stop stop-opacity="1" stop-color="rgb(0%, 79.928589%, 95.97168%)" offset="0.796875"/><stop stop-opacity="1" stop-color="rgb(0%, 80.274963%, 96.04187%)" offset="0.800781"/><stop stop-opacity="1" stop-color="rgb(0%, 80.622864%, 96.112061%)" offset="0.804688"/><stop stop-opacity="1" stop-color="rgb(0%, 80.969238%, 96.180725%)" offset="0.808594"/><stop stop-opacity="1" stop-color="rgb(0%, 81.317139%, 96.250916%)" offset="0.8125"/><stop stop-opacity="1" stop-color="rgb(0%, 81.663513%, 96.31958%)" offset="0.816406"/><stop stop-opacity="1" stop-color="rgb(0%, 82.009888%, 96.389771%)" offset="0.820312"/><stop stop-opacity="1" stop-color="rgb(0%, 82.356262%, 96.458435%)" offset="0.824219"/><stop stop-opacity="1" stop-color="rgb(0%, 82.704163%, 96.528625%)" offset="0.828125"/><stop stop-opacity="1" stop-color="rgb(0%, 83.050537%, 96.598816%)" offset="0.832031"/><stop stop-opacity="1" stop-color="rgb(0%, 83.398438%, 96.669006%)" offset="0.835938"/><stop stop-opacity="1" stop-color="rgb(0%, 83.744812%, 96.737671%)" offset="0.839844"/><stop stop-opacity="1" stop-color="rgb(0%, 84.092712%, 96.807861%)" offset="0.84375"/><stop stop-opacity="1" stop-color="rgb(0%, 84.439087%, 96.876526%)" offset="0.847656"/><stop stop-opacity="1" stop-color="rgb(0%, 84.785461%, 96.946716%)" offset="0.851562"/><stop stop-opacity="1" stop-color="rgb(0%, 85.131836%, 97.015381%)" offset="0.855469"/><stop stop-opacity="1" stop-color="rgb(0%, 85.479736%, 97.085571%)" offset="0.859375"/><stop stop-opacity="1" stop-color="rgb(0%, 85.826111%, 97.155762%)" offset="0.863281"/><stop stop-opacity="1" stop-color="rgb(0%, 86.174011%, 97.225952%)" offset="0.867188"/><stop stop-opacity="1" stop-color="rgb(0%, 86.520386%, 97.294617%)" offset="0.871094"/><stop stop-opacity="1" stop-color="rgb(0%, 86.868286%, 97.364807%)" offset="0.875"/><stop stop-opacity="1" stop-color="rgb(0%, 87.214661%, 97.433472%)" offset="0.878906"/><stop stop-opacity="1" stop-color="rgb(0%, 87.562561%, 97.503662%)" offset="0.882812"/><stop stop-opacity="1" stop-color="rgb(0%, 87.908936%, 97.572327%)" offset="0.886719"/><stop stop-opacity="1" stop-color="rgb(0%, 88.25531%, 97.642517%)" offset="0.890625"/><stop stop-opacity="1" stop-color="rgb(0%, 88.601685%, 97.712708%)" offset="0.894531"/><stop stop-opacity="1" stop-color="rgb(0%, 88.949585%, 97.782898%)" offset="0.898438"/><stop stop-opacity="1" stop-color="rgb(0%, 89.295959%, 97.851562%)" offset="0.902344"/><stop stop-opacity="1" stop-color="rgb(0%, 89.64386%, 97.921753%)" offset="0.90625"/><stop stop-opacity="1" stop-color="rgb(0%, 89.990234%, 97.990417%)" offset="0.910156"/><stop stop-opacity="1" stop-color="rgb(0%, 90.338135%, 98.060608%)" offset="0.914063"/><stop stop-opacity="1" stop-color="rgb(0%, 90.684509%, 98.129272%)" offset="0.917969"/><stop stop-opacity="1" stop-color="rgb(0%, 91.030884%, 98.199463%)" offset="0.921875"/><stop stop-opacity="1" stop-color="rgb(0%, 91.377258%, 98.269653%)" offset="0.925781"/><stop stop-opacity="1" stop-color="rgb(0%, 91.725159%, 98.339844%)" offset="0.929688"/><stop stop-opacity="1" stop-color="rgb(0%, 92.071533%, 98.408508%)" offset="0.933594"/><stop stop-opacity="1" stop-color="rgb(0%, 92.419434%, 98.478699%)" offset="0.9375"/><stop stop-opacity="1" stop-color="rgb(0%, 92.765808%, 98.547363%)" offset="0.941406"/><stop stop-opacity="1" stop-color="rgb(0%, 93.113708%, 98.617554%)" offset="0.945313"/><stop stop-opacity="1" stop-color="rgb(0%, 93.460083%, 98.686218%)" offset="0.949219"/><stop stop-opacity="1" stop-color="rgb(0%, 93.806458%, 98.756409%)" offset="0.953125"/><stop stop-opacity="1" stop-color="rgb(0%, 94.152832%, 98.826599%)" offset="0.957031"/><stop stop-opacity="1" stop-color="rgb(0%, 94.500732%, 98.89679%)" offset="0.960938"/><stop stop-opacity="1" stop-color="rgb(0%, 94.847107%, 98.965454%)" offset="0.964844"/><stop stop-opacity="1" stop-color="rgb(0%, 95.195007%, 99.035645%)" offset="0.96875"/><stop stop-opacity="1" stop-color="rgb(0%, 95.541382%, 99.104309%)" offset="0.972656"/><stop stop-opacity="1" stop-color="rgb(0%, 95.889282%, 99.1745%)" offset="0.976562"/><stop stop-opacity="1" stop-color="rgb(0%, 96.235657%, 99.243164%)" offset="0.980469"/><stop stop-opacity="1" stop-color="rgb(0%, 96.583557%, 99.313354%)" offset="0.984375"/><stop stop-opacity="1" stop-color="rgb(0%, 96.929932%, 99.383545%)" offset="0.988281"/><stop stop-opacity="1" stop-color="rgb(0%, 97.276306%, 99.453735%)" offset="0.992188"/><stop stop-opacity="1" stop-color="rgb(0%, 97.622681%, 99.5224%)" offset="0.996094"/><stop stop-opacity="1" stop-color="rgb(0%, 97.970581%, 99.59259%)" offset="1"/></linearGradient></defs><g clip-path="url(#id1)"><g clip-path="url(#id2)"><path fill="url(#id3)" d="M 234.53125 174.203125 L 234.53125 200.453125 L 258.53125 200.453125 L 258.53125 174.203125 Z M 234.53125 174.203125 " fill-rule="nonzero"/></g></g><g fill="#545454" fill-opacity="1"><g transform="translate(84.224612, 195.89158)"><g><path d="M 13.34375 -8.140625 C 14.238281 -7.859375 14.9375 -7.382812 15.4375 -6.71875 C 15.945312 -6.050781 16.203125 -5.234375 16.203125 -4.265625 C 16.203125 -2.898438 15.671875 -1.847656 14.609375 -1.109375 C 13.546875 -0.367188 11.992188 0 9.953125 0 L 1.859375 0 L 1.859375 -15.65625 L 9.5 -15.65625 C 11.40625 -15.65625 12.867188 -15.285156 13.890625 -14.546875 C 14.910156 -13.816406 15.421875 -12.828125 15.421875 -11.578125 C 15.421875 -10.816406 15.238281 -10.140625 14.875 -9.546875 C 14.507812 -8.953125 14 -8.484375 13.34375 -8.140625 Z M 5.453125 -12.921875 L 5.453125 -9.234375 L 9.0625 -9.234375 C 9.945312 -9.234375 10.617188 -9.390625 11.078125 -9.703125 C 11.546875 -10.015625 11.78125 -10.476562 11.78125 -11.09375 C 11.78125 -11.695312 11.546875 -12.148438 11.078125 -12.453125 C 10.617188 -12.765625 9.945312 -12.921875 9.0625 -12.921875 Z M 9.6875 -2.734375 C 10.632812 -2.734375 11.347656 -2.890625 11.828125 -3.203125 C 12.316406 -3.515625 12.5625 -4 12.5625 -4.65625 C 12.5625 -5.945312 11.601562 -6.59375 9.6875 -6.59375 L 5.453125 -6.59375 L 5.453125 -2.734375 Z M 9.6875 -2.734375 "/></g></g></g><g fill="#545454" fill-opacity="1"><g transform="translate(104.093754, 195.89158)"><g><path d="M 1.859375 -15.65625 L 5.484375 -15.65625 L 5.484375 -2.953125 L 13.328125 -2.953125 L 13.328125 0 L 1.859375 0 Z M 1.859375 -15.65625 "/></g></g></g><g fill="#545454" fill-opacity="1"><g transform="translate(120.36492, 195.89158)"><g><path d="M 9.4375 0.265625 C 7.8125 0.265625 6.34375 -0.0820312 5.03125 -0.78125 C 3.726562 -1.476562 2.707031 -2.441406 1.96875 -3.671875 C 1.238281 -4.898438 0.875 -6.285156 0.875 -7.828125 C 0.875 -9.359375 1.238281 -10.738281 1.96875 -11.96875 C 2.707031 -13.195312 3.726562 -14.160156 5.03125 -14.859375 C 6.34375 -15.566406 7.8125 -15.921875 9.4375 -15.921875 C 11.0625 -15.921875 12.519531 -15.566406 13.8125 -14.859375 C 15.113281 -14.160156 16.132812 -13.195312 16.875 -11.96875 C 17.625 -10.738281 18 -9.359375 18 -7.828125 C 18 -6.285156 17.625 -4.898438 16.875 -3.671875 C 16.132812 -2.441406 15.113281 -1.476562 13.8125 -0.78125 C 12.519531 -0.0820312 11.0625 0.265625 9.4375 0.265625 Z M 9.4375 -2.8125 C 10.363281 -2.8125 11.195312 -3.023438 11.9375 -3.453125 C 12.6875 -3.878906 13.269531 -4.472656 13.6875 -5.234375 C 14.113281 -5.992188 14.328125 -6.859375 14.328125 -7.828125 C 14.328125 -8.796875 14.113281 -9.660156 13.6875 -10.421875 C 13.269531 -11.179688 12.6875 -11.769531 11.9375 -12.1875 C 11.195312 -12.613281 10.363281 -12.828125 9.4375 -12.828125 C 8.507812 -12.828125 7.671875 -12.613281 6.921875 -12.1875 C 6.179688 -11.769531 5.597656 -11.179688 5.171875 -10.421875 C 4.742188 -9.660156 4.53125 -8.796875 4.53125 -7.828125 C 4.53125 -6.859375 4.742188 -5.992188 5.171875 -5.234375 C 5.597656 -4.472656 6.179688 -3.878906 6.921875 -3.453125 C 7.671875 -3.023438 8.507812 -2.8125 9.4375 -2.8125 Z M 9.4375 -2.8125 "/></g></g></g><g fill="#545454" fill-opacity="1"><g transform="translate(141.999522, 195.89158)"><g><path d="M 12.4375 -8.078125 L 15.734375 -8.078125 L 15.734375 -1.71875 C 14.890625 -1.082031 13.90625 -0.59375 12.78125 -0.25 C 11.664062 0.09375 10.539062 0.265625 9.40625 0.265625 C 7.78125 0.265625 6.316406 -0.078125 5.015625 -0.765625 C 3.722656 -1.460938 2.707031 -2.425781 1.96875 -3.65625 C 1.238281 -4.882812 0.875 -6.273438 0.875 -7.828125 C 0.875 -9.378906 1.238281 -10.769531 1.96875 -12 C 2.707031 -13.226562 3.734375 -14.1875 5.046875 -14.875 C 6.359375 -15.570312 7.835938 -15.921875 9.484375 -15.921875 C 10.847656 -15.921875 12.085938 -15.6875 13.203125 -15.21875 C 14.328125 -14.757812 15.269531 -14.09375 16.03125 -13.21875 L 13.703125 -11.0625 C 12.585938 -12.238281 11.238281 -12.828125 9.65625 -12.828125 C 8.65625 -12.828125 7.765625 -12.617188 6.984375 -12.203125 C 6.210938 -11.785156 5.609375 -11.195312 5.171875 -10.4375 C 4.742188 -9.675781 4.53125 -8.804688 4.53125 -7.828125 C 4.53125 -6.859375 4.742188 -5.992188 5.171875 -5.234375 C 5.609375 -4.472656 6.210938 -3.878906 6.984375 -3.453125 C 7.753906 -3.023438 8.628906 -2.8125 9.609375 -2.8125 C 10.648438 -2.8125 11.59375 -3.035156 12.4375 -3.484375 Z M 12.4375 -8.078125 "/></g></g></g><g fill="#545454" fill-opacity="1"><g transform="translate(162.00274, 195.89158)"><g><path d="M 7 0.265625 C 5.757812 0.265625 4.5625 0.0976562 3.40625 -0.234375 C 2.25 -0.566406 1.320312 -1.003906 0.625 -1.546875 L 1.859375 -4.265625 C 2.523438 -3.773438 3.320312 -3.378906 4.25 -3.078125 C 5.175781 -2.785156 6.097656 -2.640625 7.015625 -2.640625 C 8.046875 -2.640625 8.804688 -2.789062 9.296875 -3.09375 C 9.796875 -3.40625 10.046875 -3.8125 10.046875 -4.3125 C 10.046875 -4.6875 9.898438 -4.992188 9.609375 -5.234375 C 9.316406 -5.484375 8.941406 -5.679688 8.484375 -5.828125 C 8.023438 -5.984375 7.410156 -6.148438 6.640625 -6.328125 C 5.453125 -6.609375 4.476562 -6.890625 3.71875 -7.171875 C 2.957031 -7.460938 2.300781 -7.921875 1.75 -8.546875 C 1.207031 -9.171875 0.9375 -10.003906 0.9375 -11.046875 C 0.9375 -11.953125 1.179688 -12.773438 1.671875 -13.515625 C 2.171875 -14.253906 2.914062 -14.835938 3.90625 -15.265625 C 4.894531 -15.703125 6.101562 -15.921875 7.53125 -15.921875 C 8.53125 -15.921875 9.503906 -15.800781 10.453125 -15.5625 C 11.410156 -15.320312 12.25 -14.976562 12.96875 -14.53125 L 11.84375 -11.78125 C 10.40625 -12.601562 8.960938 -13.015625 7.515625 -13.015625 C 6.503906 -13.015625 5.753906 -12.847656 5.265625 -12.515625 C 4.773438 -12.191406 4.53125 -11.757812 4.53125 -11.21875 C 4.53125 -10.6875 4.8125 -10.289062 5.375 -10.03125 C 5.9375 -9.769531 6.789062 -9.507812 7.9375 -9.25 C 9.125 -8.96875 10.097656 -8.6875 10.859375 -8.40625 C 11.617188 -8.125 12.269531 -7.675781 12.8125 -7.0625 C 13.363281 -6.457031 13.640625 -5.628906 13.640625 -4.578125 C 13.640625 -3.679688 13.390625 -2.863281 12.890625 -2.125 C 12.390625 -1.394531 11.640625 -0.8125 10.640625 -0.375 C 9.640625 0.0507812 8.425781 0.265625 7 0.265625 Z M 7 0.265625 "/></g></g></g><g fill="#545454" fill-opacity="1"><g transform="translate(179.033721, 195.89158)"><g><path d="M 5.09375 -12.703125 L 0.09375 -12.703125 L 0.09375 -15.65625 L 13.734375 -15.65625 L 13.734375 -12.703125 L 8.71875 -12.703125 L 8.71875 0 L 5.09375 0 Z M 5.09375 -12.703125 "/></g></g></g><g fill="#545454" fill-opacity="1"><g transform="translate(195.617754, 195.89158)"><g><path d="M 13.96875 -2.90625 L 13.96875 0 L 1.859375 0 L 1.859375 -15.65625 L 13.6875 -15.65625 L 13.6875 -12.75 L 5.453125 -12.75 L 5.453125 -9.34375 L 12.71875 -9.34375 L 12.71875 -6.53125 L 5.453125 -6.53125 L 5.453125 -2.90625 Z M 13.96875 -2.90625 "/></g></g></g><g fill="#545454" fill-opacity="1"><g transform="translate(213.386216, 195.89158)"><g><path d="M 11.828125 0 L 8.8125 -4.359375 L 5.484375 -4.359375 L 5.484375 0 L 1.859375 0 L 1.859375 -15.65625 L 8.625 -15.65625 C 10.007812 -15.65625 11.210938 -15.421875 12.234375 -14.953125 C 13.253906 -14.492188 14.039062 -13.835938 14.59375 -12.984375 C 15.144531 -12.140625 15.421875 -11.132812 15.421875 -9.96875 C 15.421875 -8.8125 15.140625 -7.8125 14.578125 -6.96875 C 14.023438 -6.125 13.234375 -5.476562 12.203125 -5.03125 L 15.71875 0 Z M 11.765625 -9.96875 C 11.765625 -10.851562 11.476562 -11.53125 10.90625 -12 C 10.34375 -12.46875 9.515625 -12.703125 8.421875 -12.703125 L 5.484375 -12.703125 L 5.484375 -7.25 L 8.421875 -7.25 C 9.515625 -7.25 10.34375 -7.484375 10.90625 -7.953125 C 11.476562 -8.429688 11.765625 -9.101562 11.765625 -9.96875 Z M 11.765625 -9.96875 "/></g></g></g></svg>